<svg xmlns="http://www.w3.org/2000/svg" xmlns:xlink="http://www.w3.org/1999/xlink" width="16" height="16"
  viewBox="0 0 16 16" fill="none">
  <path
    d="M3.75 7L2.25 7C1.7 7 1.25 7.45 1.25 8L1.25 13.5C1.25 14.05 1.7 14.5 2.25 14.5L3.75 14.5C4.3 14.5 4.75 14.05 4.75 13.5L4.75 8C4.75 7.45 4.3 7 3.75 7ZM3.75 13.4984L3.74844 13.5L2.25156 13.5L2.25 13.4984L2.25 8.00156L2.25156 8L3.74844 8L3.75 8.00156L3.75 13.4984ZM13.75 5L12.25 5C11.7 5 11.25 5.45 11.25 6L11.25 13.5C11.25 14.05 11.7 14.5 12.25 14.5L13.75 14.5C14.3 14.5 14.75 14.05 14.75 13.5L14.75 6C14.75 5.45 14.3 5 13.75 5ZM13.75 13.4984L12.2516 13.5L12.25 13.4984L12.25 6.00156L12.2516 6L13.7484 6L13.75 6.00156L13.75 13.4984ZM8.75 1.5L7.25 1.5C6.7 1.5 6.25 1.95 6.25 2.5L6.25 13.5C6.25 14.05 6.7 14.5 7.25 14.5L8.75 14.5C9.3 14.5 9.75 14.05 9.75 13.5L9.75 2.5C9.75 1.95 9.3 1.5 8.75 1.5ZM8.75 13.4984L7.25156 13.5L7.25 13.4984L7.25 2.50156L7.25156 2.5L8.74844 2.5L8.75 2.50156L8.75 13.4984Z"
    fill="currentColor"></path>
</svg>