<svg xmlns="http://www.w3.org/2000/svg" xmlns:xlink="http://www.w3.org/1999/xlink" width="16" height="16" viewBox="0 0 16 16" fill="none"><g  clip-path="url(#clip-path-56_91)"><path d="M9.77548 5.2988L10.501 6.55544L10.2133 6.72211L10.5019 6.55544C10.5071 6.5645 10.5119 6.57373 10.5162 6.58307L11.2384 7.83394L11.2396 7.83321C11.3069 7.94988 11.2958 8.0903 11.2226 8.19332L10.501 9.443L10.2133 9.27768L10.5019 9.44435C10.4981 9.45102 10.494 9.45747 10.4897 9.46372L9.7635 10.7217L9.76423 10.722C9.69715 10.8382 9.57079 10.8987 9.44548 10.8875L8.00008 10.8875L8.00008 10.8887L6.52463 10.8887C6.39273 10.8887 6.27874 10.8122 6.22468 10.7009L5.49916 9.44435L5.78692 9.27768L5.49825 9.44435C5.49301 9.43529 5.48827 9.42602 5.48397 9.41675L4.76178 8.16582L4.76052 8.16655C4.69319 8.04988 4.70437 7.90946 4.77763 7.80644L5.49916 6.55674L5.78692 6.72211L5.49825 6.55543C5.50209 6.54876 5.50615 6.54231 5.51038 6.536L6.23665 5.27805L6.23596 5.27767C6.30301 5.16154 6.42937 5.10105 6.55468 5.11229L8.00008 5.11231L8.00008 5.111L9.47548 5.111C9.60746 5.111 9.72142 5.18764 9.77548 5.2988ZM9.92527 6.88839L9.28403 5.77768L8.00008 5.77768L8.00008 5.77638L6.71694 5.77637L6.08638 6.8685C6.08304 6.87533 6.07946 6.8821 6.07561 6.88877L6.07492 6.88838L6.07469 6.88877L6.07412 6.88844L5.43244 7.99988L6.05883 9.08487C6.06476 9.09321 6.07036 9.10196 6.07561 9.11102L6.07491 9.11143L6.71618 10.2221L8.00008 10.2221L8.00008 10.2234L9.28319 10.2234L9.91381 9.13123C9.91714 9.12446 9.92069 9.11769 9.92454 9.11102L9.92527 9.11143L9.92548 9.11102L9.9261 9.11133L10.5678 7.99988L9.94131 6.91494C9.93537 6.90656 9.92985 6.89786 9.92454 6.88878L9.92527 6.88839Z"   fill="#212121" ></path><path d="M9.284 5.1111L9.92525 4.0004L9.92462 4C9.92983 3.99094 9.93546 3.98223 9.94139 3.97385L10.5677 2.8889L9.92608 1.77746L9.92546 1.77779L9.92525 1.77739L9.92462 1.77779C9.92077 1.77111 9.91712 1.76434 9.91379 1.75752L9.28327 0.665387L8.00006 0.665397L8.00006 0.6667L6.71619 0.6667L6.07492 1.7774L6.07561 1.7778C6.07037 1.78686 6.06477 1.79557 6.05883 1.80396L5.43245 2.88891L6.07413 4.00035L6.0747 4.00001L6.07492 4.00041L6.07562 4.00001C6.07947 4.00669 6.08305 4.01346 6.08639 4.02028L6.71695 5.11241L8.00006 5.1124L8.00006 5.1111L9.284 5.1111ZM10.2133 4.16668L10.501 4.33334L9.77546 5.58998C9.7214 5.70115 9.60744 5.77778 9.47556 5.77778L8.00006 5.77778L8.00006 5.77648L6.55468 5.77649C6.42938 5.78773 6.30302 5.72724 6.23598 5.61113L6.23666 5.61073L5.51038 4.35278C5.50616 4.34648 5.50209 4.34002 5.49824 4.33336L5.78693 4.16668L5.49917 4.33205L4.77763 3.08231C4.70436 2.97929 4.69319 2.83888 4.76053 2.72224L4.76179 2.72297L5.48397 1.47209C5.48827 1.46277 5.493 1.45354 5.49824 1.44448L5.78693 1.61115L5.49917 1.44448L6.22469 0.187838C6.27874 0.0766721 6.39273 3.71931e-05 6.52464 3.71931e-05L8.00006 3.71931e-05L8.00006 0.00133927L9.44546 0.00132877C9.57077 -0.00991067 9.69713 0.0505784 9.76421 0.166693L9.76348 0.167088L10.4898 1.42504C10.494 1.43134 10.4981 1.4378 10.5019 1.44447L10.2133 1.61113L10.501 1.44577L11.2225 2.69551C11.2959 2.79853 11.307 2.93895 11.2396 3.05557L11.2384 3.05485L10.5162 4.30573C10.5119 4.31505 10.5072 4.32428 10.5019 4.33334L10.2133 4.16668Z"   fill="#212121" ></path><path d="M9.284 15.333L9.92525 14.2223L9.92462 14.2219C9.92983 14.2128 9.93546 14.2042 9.94139 14.1957L10.5677 13.1108L9.92608 11.9994L9.92546 11.9997L9.92525 11.9993L9.92462 11.9997C9.92077 11.993 9.91712 11.9863 9.91379 11.9794L9.28327 10.8873L8.00006 10.8873L8.00006 10.8887L6.71619 10.8887L6.07492 11.9993L6.07561 11.9997C6.07037 12.0088 6.06477 12.0175 6.05883 12.0258L5.43245 13.1108L6.07413 14.2223L6.0747 14.222L6.07492 14.2223L6.07562 14.222C6.07947 14.2286 6.08305 14.2354 6.08639 14.2422L6.71695 15.3344L8.00006 15.3344L8.00006 15.333L9.284 15.333ZM10.2133 14.3885L10.501 14.5553L9.77546 15.8119C9.7214 15.923 9.60744 15.9997 9.47556 15.9997L8.00006 15.9997L8.00006 15.9984L6.55468 15.9984C6.42938 16.0097 6.30302 15.9492 6.23598 15.833L6.23666 15.8326L5.51038 14.5747C5.50616 14.5684 5.50209 14.562 5.49824 14.5553L5.78693 14.3886L5.49917 14.554L4.77763 13.3042C4.70436 13.2013 4.69319 13.0608 4.76053 12.9442L4.76179 12.9449L5.48397 11.694C5.48827 11.6847 5.493 11.6754 5.49824 11.6664L5.78693 11.833L5.49917 11.6664L6.22469 10.4097C6.27874 10.2986 6.39273 10.222 6.52464 10.222L8.00006 10.222L8.00006 10.2233L9.44546 10.2233C9.57077 10.212 9.69713 10.2725 9.76421 10.3886L9.76348 10.389L10.4898 11.647C10.494 11.6532 10.4981 11.6597 10.5019 11.6664L10.2133 11.833L10.501 11.6677L11.2225 12.9174C11.2959 13.0204 11.307 13.1608 11.2396 13.2775L11.2384 13.2768L10.5162 14.5276C10.5119 14.537 10.5072 14.5461 10.5019 14.5553L10.2133 14.3885Z"   fill="#212121" ></path><path d="M11.1422 7.66642L12.4262 7.66642L13.71 7.66642L14.3512 6.5557L14.3506 6.5553C14.3558 6.54624 14.3615 6.53753 14.3674 6.52915L14.9934 5.44486L14.3515 4.33311L13.71 3.22202L12.4262 3.22202L11.1415 3.22202L10.5008 4.33181L10.2129 4.16644L10.5016 4.33311C10.4977 4.33979 10.4937 4.34624 10.4895 4.35254L9.85919 5.44422L10.5008 6.55532L11.1422 7.66642ZM12.4262 8.33309L10.9551 8.33309C10.8385 8.33455 10.7245 8.27465 10.662 8.16643L10.6626 8.166L9.92523 6.88865L9.1992 5.63114C9.12993 5.52876 9.12066 5.39176 9.18649 5.27754L9.47524 5.44422L9.18743 5.27754L9.91346 4.02004C9.9168 4.01322 9.92044 4.00644 9.9243 3.99978L9.92492 4.00016L9.92523 3.99978L9.92576 4.0001L10.6473 2.75028C10.6999 2.63526 10.816 2.55532 10.9506 2.55532L12.4262 2.55532L13.8971 2.55532C14.0137 2.55388 14.1278 2.61377 14.1902 2.72199L14.1896 2.72239L14.9271 3.99975L15.653 5.25726C15.7223 5.35964 15.7316 5.49665 15.6657 5.61086L15.6645 5.61013L14.9423 6.86101C14.9379 6.87034 14.9332 6.87957 14.928 6.88863L14.6393 6.72197L14.9271 6.88863L14.2015 8.14527C14.1475 8.25643 14.0334 8.33309 13.9016 8.33309L12.4262 8.33309Z"   fill="#212121" ></path><path d="M2.28992 12.7777L3.57382 12.7777L4.85849 12.7777L5.49923 11.6679L5.78699 11.8333L5.4983 11.6666C5.50216 11.6599 5.50622 11.6535 5.51045 11.6472L6.14073 10.5556L5.49923 9.44442L4.85773 8.33328L3.57384 8.33328L2.28993 8.33328L1.64865 9.444L1.64934 9.44442C1.6441 9.45348 1.6385 9.46223 1.63256 9.47057L1.00655 10.5549L1.64844 11.6666L2.28993 12.7777L2.28992 12.7777ZM3.57382 13.4444L2.10286 13.4444C1.9862 13.4459 1.87217 13.386 1.80971 13.2777L1.81039 13.2773L1.07291 12L0.34688 10.7424C0.277662 10.64 0.268318 10.5031 0.334256 10.3889L0.335505 10.3896L1.0577 9.13869C1.06199 9.12943 1.06673 9.12015 1.07197 9.11108L1.36066 9.27775L1.0729 9.11108L1.79843 7.85443C1.85248 7.74329 1.96648 7.66665 2.09838 7.66665L3.57383 7.66665L5.04478 7.66665C5.16144 7.6652 5.27547 7.72511 5.33794 7.83329L5.33725 7.8337L6.07474 9.11108L6.80076 10.3686C6.86998 10.471 6.87932 10.608 6.81339 10.7222L6.52471 10.5556L6.81247 10.7222L6.08643 11.9797C6.08309 11.9865 6.07951 11.9933 6.07566 11.9999L6.07497 11.9996L6.07474 11.9999L6.07417 11.9996L5.35259 13.2495C5.30002 13.3645 5.18398 13.4444 5.04926 13.4444L3.57382 13.4444Z"   fill="#212121" ></path><path d="M9.85883 10.5549L10.5007 11.6667L10.2129 11.8333L10.5016 11.6667C10.5068 11.6757 10.5116 11.6849 10.5159 11.6943L11.1414 12.7777L12.4261 12.7777L13.7108 12.7777L14.3515 11.6679L14.6393 11.8333L14.3506 11.6667C14.3544 11.66 14.3585 11.6535 14.3628 11.6472L14.9934 10.5549L14.3515 9.44312L13.7108 8.33334L12.4261 8.33334L11.1414 8.33334L10.5007 9.44312L9.85883 10.5549ZM9.92497 11.9996L9.19915 10.7425C9.12998 10.6401 9.1206 10.5031 9.18654 10.3888L9.18779 10.3896L9.92518 9.1124L10.6474 7.86158C10.6999 7.74659 10.8159 7.66665 10.9507 7.66665L12.4261 7.66665L13.897 7.66665C14.0137 7.6652 14.1278 7.7251 14.1903 7.83335L13.9015 8.00001L14.1893 7.8346L14.927 9.1124L15.6486 10.3622C15.7218 10.4652 15.733 10.6055 15.6657 10.7222L15.377 10.5555L15.6647 10.7222L14.9387 11.9797C14.9354 11.9865 14.9318 11.9933 14.928 12L14.9272 11.9996L14.927 12L14.9265 11.9997L14.2048 13.2495C14.1523 13.3645 14.0363 13.4445 13.9015 13.4445L12.4261 13.4445L10.9552 13.4445C10.8385 13.4458 10.7244 13.3859 10.6619 13.2777L10.9507 13.111L10.6629 13.2764L9.94101 12.0261C9.93508 12.0177 9.92945 12.009 9.92424 12L9.92497 11.9996Z"   fill="#212121" ></path><path d="M1.00654 5.44484L1.6484 6.55659L2.28914 7.66639L3.57382 7.66639L4.85849 7.66639L5.49923 6.55659L6.14109 5.44484L5.49923 4.3331L5.78699 4.16643L5.4983 4.3331C5.49306 4.32403 5.48832 4.31481 5.48403 4.30547L4.85849 3.222L3.57382 3.222L2.28914 3.222L1.6484 4.33179L1.36066 4.16642L1.64933 4.3331C1.64548 4.33976 1.64143 4.34622 1.63719 4.35252L1.00654 5.44484ZM1.0729 6.88733L0.35135 5.63759C0.278091 5.53458 0.266924 5.39416 0.334257 5.27753L0.622932 5.44419L0.335173 5.27753L1.06119 4.02005C1.06454 4.01322 1.06812 4.00645 1.07197 3.99977L1.07266 4.00016L1.0729 3.99977L1.07346 4.0001L1.79504 2.75028C1.84761 2.63526 1.96365 2.55532 2.09837 2.55532L3.57382 2.55532L5.04479 2.55532C5.16144 2.55388 5.27546 2.61378 5.33794 2.722L5.04926 2.88866L5.33702 2.7233L6.05887 3.97361C6.06481 3.98199 6.07041 3.9907 6.07565 3.99977L6.07496 4.00016L6.80075 5.25727C6.86997 5.35964 6.8793 5.49666 6.81338 5.61087L6.81212 5.61014L6.07474 6.88734L5.3526 8.13817C5.30002 8.25316 5.18398 8.33306 5.04926 8.33306L3.57382 8.33306L2.10285 8.33306C1.98619 8.33452 1.87216 8.27462 1.80968 8.16639L2.09837 7.99973L1.81061 8.16514L1.0729 6.88735L1.0729 6.88733Z"   fill="#212121" ></path></g><defs><clipPath id="clip-path-56_91"><path d="M0 16L16 16L16 0L0 0L0 16Z" fill="white"/></clipPath></defs></svg>