<svg xmlns="http://www.w3.org/2000/svg" xmlns:xlink="http://www.w3.org/1999/xlink" width="16" height="16" viewBox="0 0 16 16" fill="none"><path d="M7.72906 14.1678C7.41725 14.1678 7.16155 13.8607 7.16155 13.4829L7.16155 12.5885C7.16118 12.5517 7.16155 12.5149 7.16265 12.4782C7.16374 12.4414 7.16557 12.4046 7.16812 12.3679C7.17067 12.3312 7.17396 12.2946 7.17798 12.258C7.18199 12.2215 7.18673 12.185 7.19219 12.1486C7.19766 12.1122 7.20384 12.076 7.21074 12.0399C7.21765 12.0037 7.22527 11.9678 7.2336 11.9319C7.24194 11.8961 7.25099 11.8604 7.26074 11.825C7.27049 11.7895 7.28095 11.7542 7.29211 11.7192C7.30326 11.6841 7.31511 11.6493 7.32765 11.6147C7.34019 11.5801 7.35342 11.5458 7.36732 11.5118C7.38123 11.4777 7.39581 11.4439 7.41106 11.4105C7.42631 11.377 7.44221 11.3438 7.45878 11.311C7.47535 11.2781 7.49257 11.2456 7.51043 11.2134C7.52829 11.1813 7.54678 11.1495 7.56589 11.1181C7.58502 11.0866 7.60476 11.0556 7.62513 11.025C7.64549 10.9943 7.66645 10.9641 7.688 10.9343L8.71751 9.55504L7.68749 8.1742C7.66594 8.1444 7.64499 8.11419 7.62465 8.08356C7.6043 8.05292 7.58457 8.02189 7.56547 7.99048C7.54635 7.95906 7.52787 7.92727 7.51003 7.89513C7.49218 7.86298 7.47498 7.83049 7.45843 7.79765C7.44186 7.76481 7.42596 7.73166 7.41073 7.69819C7.3955 7.66472 7.38093 7.63095 7.36704 7.59691C7.35315 7.56287 7.33993 7.52855 7.3274 7.49397C7.31488 7.4594 7.30304 7.4246 7.29189 7.38956C7.28075 7.35451 7.2703 7.31927 7.26055 7.2838C7.25082 7.24834 7.24178 7.2127 7.23345 7.17688C7.22512 7.14106 7.21752 7.10509 7.21063 7.06897C7.20373 7.03285 7.19755 6.99662 7.1921 6.96023C7.18664 6.92387 7.18191 6.88741 7.1779 6.85085C7.1739 6.8143 7.17063 6.77768 7.16807 6.741C7.16553 6.70432 7.16372 6.6676 7.16263 6.63084C7.16153 6.59408 7.16117 6.5573 7.16155 6.52054L7.16155 5.62563C7.16155 5.2478 7.41621 4.94067 7.72906 4.94067L10.9938 4.94067C11.3056 4.94067 11.5613 5.2478 11.5613 5.62563L9.75223 7.0288C9.75223 7.64048 11.1772 9.55452 11.1772 9.55452L12.2073 10.9338C12.2289 10.9636 12.2499 10.9938 12.2702 11.0245C12.2906 11.0551 12.3104 11.0861 12.3295 11.1176C12.3487 11.149 12.3672 11.1808 12.3851 11.213C12.403 11.2451 12.4202 11.2776 12.4368 11.3105C12.4534 11.3433 12.4694 11.3765 12.4846 11.41C12.4999 11.4435 12.5145 11.4773 12.5284 11.5113C12.5424 11.5454 12.5556 11.5797 12.5682 11.6143C12.5807 11.6489 12.5926 11.6837 12.6038 11.7188C12.615 11.7539 12.6254 11.7892 12.6352 11.8246C12.645 11.8601 12.6541 11.8958 12.6624 11.9316C12.6708 11.9675 12.6784 12.0035 12.6853 12.0396C12.6923 12.0758 12.6985 12.112 12.704 12.1484C12.7094 12.1848 12.7142 12.2213 12.7182 12.2579C12.7222 12.2945 12.7256 12.3311 12.7281 12.3679C12.7307 12.4046 12.7325 12.4413 12.7336 12.4781C12.7347 12.5149 12.7351 12.5517 12.7348 12.5885L12.7348 13.4829C12.7348 13.8607 12.4801 14.1678 12.1673 14.1678L7.72906 14.1678Z"   fill="#E8A107" ></path><path d="M3.89059 14.8913C3.87357 14.8913 3.85657 14.8909 3.83958 14.89C3.8226 14.8892 3.80564 14.888 3.78871 14.8863C3.77177 14.8846 3.75489 14.8825 3.73807 14.88C3.72124 14.8775 3.70449 14.8746 3.68781 14.8713C3.67113 14.868 3.65454 14.8643 3.63804 14.8601C3.62154 14.856 3.60515 14.8515 3.58887 14.8465C3.57259 14.8416 3.55645 14.8363 3.54043 14.8305C3.52441 14.8248 3.50854 14.8187 3.49283 14.8122C3.47711 14.8056 3.46157 14.7988 3.44619 14.7915C3.43081 14.7842 3.41562 14.7766 3.40062 14.7686C3.38562 14.7605 3.37082 14.7521 3.35623 14.7434C3.34164 14.7347 3.32727 14.7256 3.31312 14.7161C3.29899 14.7067 3.28509 14.6969 3.27143 14.6868C3.25776 14.6766 3.24435 14.6662 3.2312 14.6553C3.21805 14.6446 3.20518 14.6335 3.19257 14.622C3.17996 14.6106 3.16765 14.5989 3.15562 14.5869C3.14359 14.5748 3.13187 14.5625 3.12044 14.5499C3.10903 14.5373 3.09792 14.5244 3.08713 14.5113C3.07634 14.4981 3.06587 14.4847 3.05573 14.471C3.0456 14.4574 3.03581 14.4435 3.02636 14.4293C3.01691 14.4152 3.00781 14.4008 2.99906 14.3862C2.99032 14.3717 2.98194 14.3569 2.97392 14.3419C2.9659 14.3269 2.95826 14.3117 2.95099 14.2963C2.94371 14.2809 2.93681 14.2654 2.93031 14.2496C2.9238 14.2339 2.91768 14.2181 2.91195 14.202C2.90622 14.186 2.90089 14.1699 2.89595 14.1536C2.89101 14.1373 2.88648 14.1209 2.88234 14.1045C2.87821 14.0879 2.87448 14.0714 2.87117 14.0547C2.86784 14.038 2.86494 14.0212 2.86245 14.0044C2.85995 13.9876 2.85786 13.9707 2.8562 13.9538C2.85453 13.9368 2.85328 13.9199 2.85245 13.9029C2.85161 13.8859 2.8512 13.8689 2.8512 13.8519L2.8512 12.4945C2.85118 12.4658 2.85149 12.4371 2.85213 12.4085C2.85277 12.3799 2.85374 12.3512 2.85504 12.3226C2.85635 12.294 2.85798 12.2654 2.85993 12.2368C2.86189 12.2082 2.86418 12.1797 2.86678 12.1512C2.8694 12.1226 2.87234 12.0941 2.87561 12.0657C2.87887 12.0372 2.88247 12.0088 2.88639 11.9804C2.89031 11.952 2.89455 11.9237 2.89913 11.8955C2.9037 11.8672 2.90859 11.8389 2.91382 11.8108C2.91903 11.7826 2.92457 11.7545 2.93043 11.7264C2.9363 11.6984 2.94249 11.6704 2.94899 11.6425C2.9555 11.6146 2.96233 11.5868 2.96947 11.5591C2.97661 11.5313 2.98408 11.5037 2.99186 11.4761C2.99964 11.4485 3.00774 11.4211 3.01616 11.3937C3.02456 11.3663 3.03329 11.339 3.04233 11.3118C3.05137 11.2846 3.06072 11.2576 3.07037 11.2306C3.08003 11.2036 3.09 11.1768 3.10028 11.15C3.11056 11.1233 3.12114 11.0967 3.13204 11.0702C3.14293 11.0437 3.15412 11.0173 3.16561 10.991C3.1771 10.9648 3.1889 10.9387 3.20099 10.9127C3.21309 10.8868 3.22548 10.861 3.23816 10.8353C3.25085 10.8096 3.26383 10.784 3.27711 10.7587C3.29038 10.7333 3.30394 10.708 3.31779 10.683C3.33166 10.6579 3.3458 10.633 3.36022 10.6082C3.37464 10.5835 3.38935 10.5589 3.40434 10.5345C3.41933 10.5101 3.4346 10.4858 3.45015 10.4618C3.4657 10.4377 3.48152 10.4138 3.49761 10.3901C3.51371 10.3664 3.53008 10.3429 3.54671 10.3196C3.56335 10.2963 3.58025 10.2731 3.59742 10.2502C3.61458 10.2273 3.63201 10.2045 3.6497 10.182C3.66738 10.1595 3.68533 10.1371 3.70354 10.115C3.72174 10.0929 3.74019 10.071 3.75889 10.0493C3.7776 10.0276 3.79655 10.0061 3.81575 9.98484L5.7012 7.89205L3.81471 5.79714C3.79553 5.77589 3.77659 5.7544 3.7579 5.73272C3.73921 5.71101 3.72078 5.68909 3.70259 5.66697C3.6844 5.64486 3.66647 5.62252 3.6488 5.59998C3.63112 5.57746 3.6137 5.55472 3.59655 5.53178C3.5794 5.50886 3.56252 5.48574 3.54589 5.4624C3.52928 5.43908 3.51292 5.41558 3.49683 5.39187C3.48076 5.36818 3.46495 5.3443 3.44942 5.32026C3.43388 5.29619 3.41863 5.27195 3.40366 5.24755C3.38868 5.22313 3.37398 5.19855 3.35957 5.1738C3.34516 5.14906 3.33103 5.12415 3.31719 5.09906C3.30335 5.07401 3.2898 5.04877 3.27654 5.02341C3.26328 4.99802 3.25031 4.97248 3.23764 4.9468C3.22496 4.92113 3.21258 4.8953 3.2005 4.86932C3.18842 4.84337 3.17663 4.81727 3.16515 4.79103C3.15367 4.76481 3.14249 4.73843 3.13161 4.71196C3.12074 4.68545 3.11016 4.65883 3.0999 4.63209C3.08962 4.60536 3.07967 4.57852 3.07002 4.55154C3.06037 4.52459 3.05103 4.49753 3.042 4.47036C3.03297 4.44316 3.02425 4.41588 3.01586 4.3885C3.00746 4.36114 2.99937 4.33367 2.9916 4.3061C2.98382 4.27855 2.97637 4.25089 2.96923 4.22316C2.96209 4.19542 2.95528 4.1676 2.94879 4.1397C2.94229 4.11182 2.93611 4.08386 2.93026 4.05583C2.92439 4.02779 2.91886 3.9997 2.91366 3.97153C2.90845 3.94338 2.90356 3.91516 2.89899 3.88688C2.89443 3.85862 2.89019 3.8303 2.88628 3.80192C2.88237 3.77356 2.87878 3.74514 2.87552 3.71669C2.87226 3.68824 2.86933 3.65977 2.86672 3.63124C2.86412 3.60272 2.86184 3.57417 2.85988 3.54559C2.85793 3.51703 2.85631 3.48843 2.85501 3.45982C2.85372 3.43123 2.85276 3.4026 2.85212 3.37396C2.85148 3.34534 2.85118 3.3167 2.8512 3.28806L2.8512 1.93063C2.8512 1.91362 2.85161 1.89661 2.85245 1.87963C2.85328 1.86263 2.85453 1.84567 2.8562 1.82875C2.85786 1.81182 2.85995 1.79494 2.86245 1.77811C2.86494 1.76129 2.86784 1.74453 2.87117 1.72785C2.87448 1.71116 2.87821 1.69457 2.88234 1.67807C2.88648 1.66157 2.89101 1.64518 2.89595 1.6289C2.90089 1.61262 2.90622 1.59648 2.91195 1.58046C2.91768 1.56445 2.9238 1.54858 2.93031 1.53288C2.93683 1.51716 2.94372 1.50161 2.95099 1.48622C2.95826 1.47085 2.9659 1.45566 2.97392 1.44066C2.98194 1.42566 2.99032 1.41086 2.99906 1.39627C3.00781 1.38168 3.01691 1.36731 3.02636 1.35317C3.03581 1.33903 3.0456 1.32512 3.05573 1.31146C3.06587 1.2978 3.07634 1.28439 3.08713 1.27124C3.09792 1.2581 3.10903 1.24522 3.12044 1.23261C3.13187 1.22001 3.14359 1.20769 3.15562 1.19567C3.16765 1.18364 3.17996 1.17191 3.19257 1.16049C3.20518 1.14906 3.21805 1.13796 3.2312 1.12717C3.24435 1.11638 3.25776 1.10591 3.27143 1.09578C3.28509 1.08565 3.29899 1.07586 3.31312 1.0664C3.32727 1.05695 3.34164 1.04786 3.35623 1.03911C3.37082 1.03037 3.38562 1.02198 3.40062 1.01397C3.41562 1.00595 3.43081 0.998301 3.44619 0.991028C3.46157 0.983755 3.47711 0.976864 3.49283 0.970355C3.50854 0.963845 3.52441 0.957725 3.54043 0.951995C3.55645 0.946264 3.57259 0.94093 3.58887 0.935993C3.60515 0.931054 3.62154 0.926518 3.63804 0.922385C3.65454 0.918251 3.67113 0.914526 3.68781 0.911208C3.70449 0.907889 3.72124 0.904981 3.73807 0.902485C3.75489 0.89999 3.77177 0.897909 3.78871 0.896241C3.80564 0.894574 3.8226 0.893323 3.83958 0.892489C3.85657 0.891653 3.87357 0.891235 3.89059 0.891235L12.0186 0.891235C12.0356 0.891235 12.0526 0.891653 12.0696 0.892489C12.0866 0.893323 12.1036 0.894574 12.1205 0.896241C12.1374 0.897909 12.1543 0.89999 12.1711 0.902485C12.1879 0.904981 12.2047 0.907889 12.2214 0.911208C12.2381 0.914526 12.2546 0.918251 12.2712 0.922385C12.2877 0.926518 12.3041 0.931054 12.3203 0.935993C12.3366 0.94093 12.3528 0.946264 12.3688 0.951995C12.3848 0.957725 12.4006 0.963845 12.4164 0.970355C12.4321 0.976864 12.4476 0.983755 12.463 0.991028C12.4784 0.998301 12.4936 1.00595 12.5086 1.01397C12.5236 1.02198 12.5384 1.03037 12.553 1.03911C12.5676 1.04786 12.5819 1.05695 12.5961 1.0664C12.6102 1.07586 12.6241 1.08565 12.6378 1.09578C12.6514 1.10591 12.6648 1.11637 12.678 1.12717C12.6911 1.13796 12.704 1.14906 12.7166 1.16049C12.7292 1.17191 12.7415 1.18364 12.7536 1.19567C12.7656 1.20769 12.7773 1.22001 12.7887 1.23261C12.8002 1.24522 12.8113 1.2581 12.8221 1.27124C12.8329 1.28439 12.8433 1.2978 12.8535 1.31146C12.8636 1.32512 12.8734 1.33903 12.8828 1.35317C12.8923 1.36731 12.9014 1.38168 12.9101 1.39627C12.9189 1.41086 12.9272 1.42566 12.9353 1.44066C12.9433 1.45566 12.9509 1.47085 12.9582 1.48622C12.9655 1.50161 12.9724 1.51716 12.9789 1.53288C12.9854 1.54858 12.9915 1.56445 12.9972 1.58046C13.003 1.59648 13.0083 1.61262 13.0132 1.6289C13.0182 1.64518 13.0227 1.66157 13.0269 1.67807C13.031 1.69457 13.0347 1.71116 13.038 1.72785C13.0413 1.74453 13.0443 1.76129 13.0468 1.77811C13.0492 1.79494 13.0513 1.81182 13.053 1.82875C13.0547 1.84567 13.0559 1.86263 13.0567 1.87963C13.0576 1.89661 13.058 1.91362 13.058 1.93063L13.058 3.28806C13.058 3.3167 13.0577 3.34534 13.0571 3.37396C13.0564 3.4026 13.0555 3.43123 13.0542 3.45982C13.0529 3.48843 13.0513 3.51703 13.0493 3.54559C13.0474 3.57417 13.0451 3.60272 13.0425 3.63124C13.0399 3.65977 13.0369 3.68824 13.0337 3.71669C13.0304 3.74514 13.0268 3.77356 13.0229 3.80192C13.019 3.8303 13.0148 3.85862 13.0102 3.88688C13.0056 3.91516 13.0008 3.94338 12.9955 3.97153C12.9903 3.9997 12.9848 4.02779 12.9789 4.05583C12.9731 4.08387 12.9669 4.11183 12.9604 4.1397C12.9539 4.1676 12.9471 4.19542 12.94 4.22316C12.9328 4.25089 12.9254 4.27855 12.9176 4.3061C12.9098 4.33367 12.9017 4.36114 12.8933 4.3885C12.8849 4.41588 12.8762 4.44316 12.8672 4.47036C12.8582 4.49753 12.8488 4.52459 12.8392 4.55154C12.8295 4.57852 12.8196 4.60536 12.8093 4.63209C12.799 4.65883 12.7885 4.68545 12.7776 4.71196C12.7667 4.73843 12.7555 4.76481 12.744 4.79103C12.7326 4.81727 12.7208 4.84337 12.7087 4.86934C12.6966 4.8953 12.6842 4.92113 12.6716 4.9468C12.6589 4.97248 12.6459 4.99802 12.6327 5.02341C12.6194 5.04877 12.6058 5.07401 12.592 5.09906C12.5782 5.12415 12.564 5.14906 12.5496 5.1738C12.5352 5.19855 12.5205 5.22313 12.5055 5.24755C12.4906 5.27195 12.4753 5.29619 12.4598 5.32026C12.4442 5.3443 12.4284 5.36818 12.4124 5.39187C12.3963 5.41558 12.3799 5.43908 12.3633 5.4624C12.3467 5.48574 12.3298 5.50886 12.3126 5.53178C12.2955 5.55472 12.2781 5.57746 12.2604 5.59998C12.2427 5.62252 12.2248 5.64486 12.2066 5.66697C12.1884 5.68909 12.17 5.71101 12.1513 5.73272C12.1326 5.7544 12.1137 5.77589 12.0945 5.79714L10.208 7.89205L12.094 9.98484C12.1132 10.0061 12.1321 10.0276 12.1508 10.0493C12.1695 10.071 12.1879 10.0929 12.2061 10.115C12.2243 10.1372 12.2423 10.1595 12.26 10.182C12.2776 10.2046 12.2951 10.2273 12.3122 10.2502C12.3294 10.2732 12.3463 10.2963 12.3629 10.3196C12.3796 10.343 12.3959 10.3665 12.412 10.3901C12.4281 10.4139 12.4439 10.4377 12.4594 10.4618C12.475 10.4859 12.4902 10.5101 12.5052 10.5345C12.5202 10.5589 12.5349 10.5835 12.5493 10.6083C12.5638 10.633 12.5779 10.6579 12.5917 10.683C12.6056 10.7081 12.6191 10.7333 12.6324 10.7587C12.6457 10.7841 12.6587 10.8096 12.6713 10.8353C12.684 10.861 12.6964 10.8868 12.7085 10.9128C12.7206 10.9388 12.7324 10.9649 12.7439 10.9911C12.7553 11.0173 12.7665 11.0437 12.7774 11.0702C12.7883 11.0967 12.7989 11.1233 12.8091 11.1501C12.8194 11.1768 12.8294 11.2037 12.839 11.2306C12.8487 11.2576 12.858 11.2847 12.8671 11.3119C12.8761 11.3391 12.8848 11.3663 12.8932 11.3937C12.9016 11.4211 12.9097 11.4486 12.9175 11.4762C12.9253 11.5037 12.9327 11.5314 12.9399 11.5591C12.947 11.5869 12.9539 11.6147 12.9604 11.6426C12.9669 11.6705 12.973 11.6985 12.9789 11.7265C12.9848 11.7545 12.9903 11.7827 12.9955 11.8108C13.0007 11.839 13.0056 11.8672 13.0102 11.8955C13.0147 11.9238 13.019 11.9521 13.0229 11.9805C13.0268 12.0088 13.0304 12.0373 13.0337 12.0657C13.0369 12.0942 13.0398 12.1227 13.0425 12.1512C13.0451 12.1797 13.0474 12.2083 13.0493 12.2368C13.0513 12.2654 13.0529 12.294 13.0542 12.3226C13.0555 12.3513 13.0564 12.3799 13.0571 12.4085C13.0577 12.4372 13.058 12.4658 13.058 12.4945L13.058 13.8519C13.058 13.8689 13.0576 13.8859 13.0567 13.9029C13.0559 13.9199 13.0547 13.9368 13.053 13.9538C13.0513 13.9707 13.0492 13.9876 13.0467 14.0044C13.0443 14.0212 13.0413 14.038 13.038 14.0547C13.0347 14.0714 13.031 14.0879 13.0269 14.1045C13.0227 14.1209 13.0182 14.1373 13.0132 14.1536C13.0083 14.1699 13.003 14.186 12.9972 14.202C12.9915 14.2181 12.9854 14.2339 12.9789 14.2496C12.9724 14.2654 12.9655 14.2809 12.9582 14.2963C12.9509 14.3117 12.9433 14.3269 12.9353 14.3419C12.9272 14.3569 12.9189 14.3717 12.9101 14.3862C12.9014 14.4008 12.8923 14.4152 12.8828 14.4293C12.8734 14.4435 12.8636 14.4574 12.8535 14.471C12.8433 14.4847 12.8329 14.4981 12.8221 14.5113C12.8113 14.5244 12.8002 14.5373 12.7887 14.5499C12.7773 14.5625 12.7656 14.5748 12.7536 14.5869C12.7415 14.5989 12.7292 14.6106 12.7166 14.622C12.704 14.6335 12.6911 14.6446 12.678 14.6553C12.6648 14.6662 12.6514 14.6766 12.6378 14.6867C12.6241 14.6969 12.6102 14.7067 12.5961 14.7161C12.5819 14.7256 12.5676 14.7347 12.553 14.7434C12.5384 14.7521 12.5236 14.7605 12.5086 14.7686C12.4936 14.7766 12.4784 14.7842 12.463 14.7915C12.4476 14.7988 12.4321 14.8056 12.4164 14.8122C12.4006 14.8187 12.3848 14.8248 12.3688 14.8305C12.3528 14.8363 12.3366 14.8416 12.3203 14.8465C12.3041 14.8515 12.2877 14.856 12.2712 14.8601C12.2547 14.8643 12.2381 14.868 12.2214 14.8713C12.2047 14.8746 12.1879 14.8775 12.1711 14.88C12.1543 14.8825 12.1374 14.8846 12.1205 14.8863C12.1036 14.888 12.0866 14.8892 12.0696 14.89C12.0526 14.8909 12.0356 14.8913 12.0186 14.8913L3.89059 14.8913ZM3.84797 3.28806C3.84796 3.30911 3.84819 3.33014 3.84867 3.35118C3.84913 3.37222 3.84984 3.39323 3.8508 3.41425C3.85176 3.43526 3.85296 3.45628 3.8544 3.47726C3.85583 3.49824 3.85751 3.51921 3.85943 3.54016C3.86135 3.56112 3.8635 3.58205 3.8659 3.60294C3.86829 3.62385 3.87093 3.64472 3.87381 3.66556C3.87669 3.6864 3.87981 3.70721 3.88317 3.72797C3.88652 3.74875 3.89011 3.76948 3.89394 3.79016C3.89777 3.81086 3.90184 3.8315 3.90614 3.85209C3.91045 3.87269 3.91498 3.89323 3.91975 3.91371C3.92453 3.9342 3.92954 3.95463 3.93479 3.97501C3.94003 3.9954 3.9455 4.0157 3.95121 4.03594C3.95692 4.05619 3.96286 4.07639 3.96905 4.0965C3.97522 4.1166 3.98162 4.13663 3.98824 4.1566C3.99488 4.17657 4.00174 4.19645 4.00883 4.21628C4.01592 4.23608 4.02324 4.25581 4.03078 4.27543C4.03832 4.29509 4.04609 4.31463 4.05407 4.33409C4.06207 4.35357 4.07028 4.37294 4.07871 4.3922C4.08715 4.41149 4.09581 4.43066 4.10468 4.44973C4.11355 4.46881 4.12264 4.48777 4.13195 4.50665C4.14126 4.52551 4.15079 4.54426 4.16053 4.56292C4.17026 4.58156 4.18022 4.60009 4.19039 4.61851C4.20056 4.63693 4.21093 4.65524 4.22151 4.67342C4.2321 4.69161 4.24289 4.70966 4.25389 4.72759C4.2649 4.74554 4.2761 4.76334 4.28751 4.781C4.29892 4.79869 4.31053 4.81624 4.32234 4.83365C4.33415 4.85104 4.34616 4.86832 4.35837 4.88545C4.37057 4.9026 4.38298 4.9196 4.39557 4.93643C4.40817 4.95329 4.42095 4.97 4.43393 4.98657C4.44692 5.0031 4.46009 5.01951 4.47344 5.03577C4.4868 5.05203 4.50035 5.06813 4.51407 5.08406C4.52779 5.10001 4.5417 5.11579 4.5558 5.13141L6.74268 7.55942C6.74779 7.56507 6.75276 7.57083 6.7576 7.57669C6.76244 7.58258 6.76714 7.58856 6.77171 7.59465C6.77629 7.60073 6.7807 7.6069 6.78499 7.61321C6.78928 7.6195 6.79341 7.62587 6.7974 7.63235C6.80139 7.63883 6.80523 7.6454 6.80892 7.65205C6.81261 7.65871 6.81613 7.66545 6.8195 7.67229C6.82289 7.67909 6.82612 7.68599 6.82917 7.69295C6.83223 7.69992 6.83512 7.70696 6.83786 7.71405C6.8406 7.72115 6.84318 7.72831 6.84558 7.73552C6.84799 7.74275 6.85024 7.75002 6.85231 7.75735C6.85438 7.76466 6.85628 7.77203 6.85801 7.77944C6.85975 7.78684 6.86131 7.7943 6.86271 7.80177C6.8641 7.80925 6.86532 7.81677 6.86636 7.82432C6.86741 7.83183 6.86828 7.8394 6.86897 7.84698C6.86969 7.85456 6.87021 7.86214 6.87056 7.86975C6.8709 7.87734 6.87108 7.88496 6.87108 7.89255C6.87108 7.90016 6.8709 7.90778 6.87056 7.91539C6.87021 7.92297 6.86969 7.93056 6.86897 7.93816C6.86828 7.94572 6.86741 7.95327 6.86636 7.96082C6.86532 7.96835 6.8641 7.97587 6.86271 7.98334C6.86131 7.99082 6.85975 7.99826 6.85801 8.00568C6.85628 8.01309 6.85438 8.02046 6.85231 8.02777C6.85024 8.0351 6.84799 8.04237 6.84558 8.0496C6.84318 8.05681 6.8406 8.06397 6.83786 8.07107C6.83512 8.07816 6.83223 8.0852 6.82917 8.09218C6.8261 8.09914 6.82288 8.10603 6.8195 8.11283C6.81613 8.11967 6.81261 8.12641 6.80892 8.13306C6.80523 8.13972 6.80139 8.14629 6.7974 8.15276C6.79341 8.15925 6.78928 8.16562 6.78499 8.17192C6.7807 8.17822 6.77629 8.18441 6.77171 8.19047C6.76714 8.19656 6.76244 8.20254 6.7576 8.20843C6.75276 8.21429 6.74779 8.22005 6.74268 8.2257L4.55475 10.6511C4.54067 10.6667 4.52677 10.6825 4.51305 10.6984C4.49933 10.7144 4.48579 10.7305 4.47245 10.7467C4.45909 10.763 4.44593 10.7794 4.43297 10.796C4.41999 10.8125 4.40721 10.8292 4.39462 10.8461C4.38203 10.8629 4.36963 10.8799 4.35744 10.8971C4.34524 10.9142 4.33324 10.9315 4.32143 10.9489C4.30963 10.9663 4.29802 10.9839 4.28662 11.0015C4.27523 11.0192 4.26403 11.037 4.25304 11.055C4.24205 11.0729 4.23126 11.091 4.22069 11.1091C4.21011 11.1273 4.19974 11.1456 4.18958 11.164C4.17943 11.1825 4.16949 11.201 4.15975 11.2196C4.15002 11.2383 4.14051 11.257 4.1312 11.2759C4.12191 11.2948 4.11282 11.3138 4.10395 11.3328C4.09509 11.3519 4.08645 11.3711 4.07803 11.3904C4.0696 11.4096 4.0614 11.429 4.05342 11.4485C4.04544 11.4679 4.03768 11.4875 4.03016 11.5071C4.02263 11.5268 4.01532 11.5465 4.00824 11.5663C4.00116 11.5861 3.99431 11.606 3.98769 11.626C3.98107 11.6459 3.97469 11.666 3.96852 11.6861C3.96236 11.7062 3.95643 11.7264 3.95072 11.7466C3.94502 11.7669 3.93956 11.7872 3.93433 11.8076C3.9291 11.8279 3.92411 11.8484 3.91934 11.8689C3.91458 11.8893 3.91006 11.9099 3.90576 11.9305C3.90147 11.9511 3.89741 11.9717 3.89359 11.9924C3.88978 12.0131 3.88621 12.0338 3.88286 12.0546C3.87952 12.0753 3.87642 12.0962 3.87356 12.117C3.87069 12.1378 3.86806 12.1587 3.86568 12.1796C3.86329 12.2005 3.86115 12.2214 3.85925 12.2424C3.85734 12.2633 3.85568 12.2843 3.85425 12.3053C3.85284 12.3263 3.85166 12.3473 3.85071 12.3683C3.84977 12.3893 3.84907 12.4103 3.84862 12.4313C3.84815 12.4524 3.84794 12.4734 3.84797 12.4945L3.84797 13.8976L12.0643 13.8976L12.0643 12.4945C12.0644 12.4734 12.0641 12.4524 12.0636 12.4313C12.0632 12.4103 12.0625 12.3893 12.0615 12.3683C12.0606 12.3472 12.0594 12.3262 12.0579 12.3052C12.0565 12.2843 12.0548 12.2633 12.0529 12.2423C12.051 12.2214 12.0488 12.2005 12.0464 12.1796C12.044 12.1587 12.0414 12.1378 12.0385 12.117C12.0356 12.0961 12.0325 12.0753 12.0292 12.0545C12.0258 12.0338 12.0222 12.013 12.0184 11.9923C12.0146 11.9717 12.0105 11.951 12.0062 11.9304C12.0019 11.9098 11.9973 11.8893 11.9926 11.8688C11.9878 11.8483 11.9828 11.8279 11.9775 11.8075C11.9723 11.7871 11.9668 11.7668 11.9611 11.7466C11.9554 11.7263 11.9494 11.7061 11.9433 11.686C11.9371 11.6659 11.9307 11.6459 11.9241 11.6259C11.9174 11.6059 11.9106 11.586 11.9035 11.5662C11.8964 11.5464 11.8891 11.5267 11.8815 11.5071C11.874 11.4874 11.8662 11.4679 11.8582 11.4484C11.8502 11.429 11.842 11.4096 11.8336 11.3903C11.8252 11.371 11.8165 11.3519 11.8076 11.3328C11.7987 11.3137 11.7897 11.2947 11.7804 11.2759C11.771 11.257 11.7615 11.2382 11.7518 11.2196C11.742 11.201 11.7321 11.1824 11.7219 11.164C11.7117 11.1456 11.7014 11.1273 11.6908 11.1091C11.6802 11.0909 11.6694 11.0729 11.6584 11.0549C11.6474 11.037 11.6362 11.0192 11.6248 11.0015C11.6134 10.9838 11.6018 10.9663 11.59 10.9489C11.5782 10.9315 11.5661 10.9142 11.5539 10.897C11.5417 10.8799 11.5293 10.8629 11.5167 10.8461C11.5041 10.8292 11.4914 10.8125 11.4784 10.796C11.4654 10.7794 11.4522 10.763 11.4389 10.7467C11.4255 10.7305 11.412 10.7144 11.3982 10.6984C11.3845 10.6825 11.3706 10.6667 11.3565 10.6511L9.17017 8.2257C9.16506 8.22005 9.16007 8.21429 9.15523 8.20843C9.15039 8.20254 9.14569 8.19656 9.14112 8.19047C9.13654 8.18441 9.13213 8.17822 9.12784 8.17192C9.12355 8.16562 9.11942 8.15925 9.11543 8.15276C9.11144 8.14629 9.1076 8.13972 9.10391 8.13306C9.10022 8.12641 9.09669 8.11967 9.09332 8.11283C9.08995 8.10603 9.08673 8.09914 9.08367 8.09218C9.0806 8.0852 9.07771 8.07816 9.07497 8.07107C9.07223 8.06397 9.06967 8.05681 9.06725 8.0496C9.06484 8.04237 9.06261 8.0351 9.06054 8.02777C9.05846 8.02046 9.05655 8.01309 9.05482 8.00568C9.05308 7.99826 9.05152 7.99082 9.05012 7.98334C9.04873 7.97587 9.04751 7.96835 9.04647 7.96082C9.04542 7.95327 9.04455 7.94572 9.04386 7.93816C9.04314 7.93056 9.04262 7.92297 9.04227 7.91539C9.04193 7.90778 9.04175 7.90016 9.04175 7.89255C9.04175 7.88496 9.04193 7.87734 9.04227 7.86975C9.04262 7.86214 9.04314 7.85456 9.04386 7.84698C9.04455 7.8394 9.04542 7.83183 9.04647 7.82432C9.04751 7.81677 9.04873 7.80925 9.05012 7.80177C9.05152 7.7943 9.05308 7.78684 9.05482 7.77944C9.05655 7.77203 9.05846 7.76466 9.06054 7.75735C9.06261 7.75002 9.06484 7.74275 9.06725 7.73552C9.06967 7.72831 9.07223 7.72115 9.07497 7.71405C9.07771 7.70696 9.0806 7.69992 9.08367 7.69295C9.08673 7.68599 9.08995 7.67909 9.09332 7.67229C9.09669 7.66545 9.10024 7.65871 9.10393 7.65205C9.10761 7.6454 9.11144 7.63883 9.11543 7.63235C9.11942 7.62587 9.12355 7.6195 9.12784 7.61321C9.13213 7.6069 9.13654 7.60073 9.14112 7.59465C9.14569 7.58856 9.15039 7.58258 9.15523 7.57669C9.16007 7.57083 9.16506 7.56507 9.17017 7.55942L11.3576 5.13141C11.3716 5.11579 11.3855 5.10001 11.3993 5.08406C11.413 5.06811 11.4265 5.05202 11.4399 5.03575C11.4532 5.0195 11.4664 5.00309 11.4794 4.98653C11.4924 4.96998 11.5051 4.95327 11.5177 4.93643C11.5303 4.91958 11.5427 4.90258 11.5549 4.88543C11.5671 4.86831 11.5791 4.85104 11.5909 4.83364C11.6027 4.81621 11.6143 4.79866 11.6257 4.78099C11.6371 4.76331 11.6484 4.74551 11.6593 4.72758C11.6703 4.70963 11.6811 4.69158 11.6917 4.67338C11.7023 4.65521 11.7126 4.63692 11.7228 4.6185C11.733 4.60006 11.7429 4.58153 11.7527 4.56287C11.7624 4.54423 11.7719 4.52546 11.7812 4.5066C11.7905 4.48774 11.7996 4.46876 11.8085 4.44969C11.8174 4.43061 11.826 4.41143 11.8344 4.39215C11.8429 4.37288 11.8511 4.35351 11.859 4.33406C11.867 4.3146 11.8748 4.29505 11.8823 4.27542C11.8899 4.25576 11.8972 4.23604 11.9043 4.21622C11.9113 4.19642 11.9182 4.17653 11.9248 4.15656C11.9315 4.1366 11.9378 4.11657 11.944 4.09644C11.9502 4.07634 11.9561 4.05616 11.9618 4.03592C11.9675 4.01567 11.973 3.99535 11.9782 3.97497C11.9835 3.9546 11.9885 3.93417 11.9933 3.91368C11.998 3.8932 12.0026 3.87266 12.0068 3.85205C12.0112 3.83147 12.0152 3.81083 12.019 3.79015C12.0229 3.76945 12.0265 3.74872 12.0298 3.72794C12.0331 3.70718 12.0363 3.68638 12.0391 3.66553C12.042 3.6447 12.0446 3.62383 12.047 3.60293C12.0494 3.58204 12.0516 3.5611 12.0535 3.54015C12.0554 3.5192 12.0571 3.49824 12.0585 3.47724C12.0599 3.45626 12.0611 3.43525 12.0621 3.41425C12.063 3.39321 12.0637 3.3722 12.0642 3.35118C12.0647 3.33014 12.0649 3.30911 12.0649 3.28806L12.0649 1.8849L3.84797 1.8849L3.84797 3.28806Z"   fill="#383838" ></path><path d="M10.6196 12.0366L10.6196 12.1442C10.6196 12.5305 10.4264 12.7236 10.0401 12.7236L5.86855 12.7236C5.48225 12.7236 5.28909 12.5305 5.28909 12.1442L5.28909 12.0366C5.28909 11.6503 5.48225 11.4572 5.86855 11.4572L10.0401 11.4572C10.4264 11.4572 10.6196 11.6503 10.6196 12.0366Z"   fill="#383838" ></path></svg>