<?xml version="1.0" encoding="UTF-8"?>
<svg version="1.1" xmlns="http://www.w3.org/2000/svg" width="32" height="32">
<path d="M0 0 C1.423125 -0.061875 2.84625 -0.12375 4.3125 -0.1875 C5.51326172 -0.23970703 5.51326172 -0.23970703 6.73828125 -0.29296875 C9 0 9 0 10.81640625 1.29296875 C12.76256479 4.09980466 11.5756688 6.77625471 11 10 C11.33 10.99 11.66 11.98 12 13 C10.125 12.6875 10.125 12.6875 8 12 C7.34 11.01 6.68 10.02 6 9 C5.01 8.67 4.02 8.34 3 8 C3 9.65 3 11.3 3 13 C2.01 13 1.02 13 0 13 C0 8.71 0 4.42 0 0 Z M3 3 C3 3.99 3 4.98 3 6 C4.65 6 6.3 6 8 6 C8.33 5.01 8.66 4.02 9 3 C7.02 3 5.04 3 3 3 Z " fill="#D6001C" transform="translate(2,7)"/>
<path d="M0 0 C9.24 0 18.48 0 28 0 C28 0.99 28 1.98 28 3 C18.76 3 9.52 3 0 3 C0 2.01 0 1.02 0 0 Z " fill="#D6001B" transform="translate(2,22)"/>
<path d="M0 0 C8.75 -0.125 8.75 -0.125 11 1 C11.04254356 2.99954746 11.04080783 5.00041636 11 7 C10 8 10 8 6.4375 8.0625 C5.303125 8.041875 4.16875 8.02125 3 8 C3 9.65 3 11.3 3 13 C2.01 13 1.02 13 0 13 C0 8.71 0 4.42 0 0 Z M3 3 C3 3.99 3 4.98 3 6 C4.65 6 6.3 6 8 6 C8 5.01 8 4.02 8 3 C6.35 3 4.7 3 3 3 Z " fill="#D6001C" transform="translate(15,7)"/>
<path d="M0 0 C0.66 0 1.32 0 2 0 C2 4.29 2 8.58 2 13 C1.34 13 0.68 13 0 13 C0 8.71 0 4.42 0 0 Z " fill="#D6001B" transform="translate(28,7)"/>
</svg>
