<svg xmlns="http://www.w3.org/2000/svg" xmlns:xlink="http://www.w3.org/1999/xlink" width="45.5555419921875" height="20" viewBox="0 0 45.5555419921875 20" fill="none"><g  clip-path="url(#clip-path-40_171)"><path d="M24.8659 8.39636L29.3592 2.96769C29.6344 2.60644 29.765 2.41738 29.6344 2.10989C29.6259 2.08967 29.6167 2.06975 29.6067 2.05013C29.5968 2.03064 29.5861 2.01145 29.5746 1.99256C29.5633 1.97367 29.5513 1.95527 29.5387 1.93735C29.5261 1.91931 29.5129 1.90175 29.499 1.88468C29.4851 1.8676 29.4706 1.85102 29.4555 1.83491C29.4403 1.81881 29.4247 1.80325 29.4086 1.78824C29.3924 1.77322 29.3757 1.75881 29.3584 1.74501C29.3412 1.73108 29.3235 1.71783 29.3053 1.70523C29.2871 1.69264 29.2686 1.68066 29.2496 1.66927C29.2306 1.65801 29.2111 1.64736 29.1913 1.63731C29.1715 1.62738 29.1514 1.61812 29.131 1.60952C29.1105 1.60092 29.0898 1.59305 29.0689 1.58591C29.0478 1.57877 29.0265 1.57235 29.005 1.56666C28.9835 1.56097 28.9619 1.556 28.9401 1.55176C28.9182 1.54753 28.8963 1.54408 28.8743 1.54141C28.8522 1.53875 28.8301 1.53687 28.8079 1.53578C28.7571 1.533 28.7065 1.5353 28.6562 1.54269C28.6059 1.55007 28.5569 1.56242 28.5092 1.57974C28.4615 1.59693 28.4161 1.61878 28.3729 1.6453C28.3298 1.67182 28.2898 1.70239 28.253 1.73702L23.4316 6.86965L24.8659 8.39636Z"   fill="#FFFFFF" ></path><path d="M31.0075 18.5383L25.0381 11.5853L24.8588 11.7729L23.4221 10.0994L21.9939 8.39999L21.1279 9.32191C21.109 9.34176 21.0911 9.36247 21.0742 9.38402C21.0573 9.40557 21.0414 9.42791 21.0266 9.45104C21.0119 9.47404 20.9983 9.49765 20.9859 9.52187C20.9733 9.54621 20.962 9.57103 20.9519 9.59634C20.9417 9.62177 20.9328 9.64756 20.9252 9.67371C20.9176 9.69986 20.9112 9.72632 20.906 9.75308C20.9008 9.77984 20.897 9.80678 20.8946 9.8339C20.892 9.86102 20.8908 9.8882 20.8909 9.91545C20.8909 9.94269 20.8922 9.96987 20.8949 9.99699C20.8975 10.0241 20.9015 10.0511 20.9067 10.0778C20.912 10.1045 20.9185 10.1308 20.9263 10.157C20.934 10.1832 20.9431 10.2089 20.9534 10.2342C20.9636 10.2595 20.975 10.2843 20.9875 10.3085C21.0002 10.3327 21.014 10.3563 21.0289 10.3793C21.0437 10.4023 21.0597 10.4245 21.0766 10.446C21.0937 10.4674 21.1117 10.488 21.1307 10.5079L29.9449 19.784C29.9633 19.8031 29.9828 19.821 30.0033 19.8378C30.0238 19.8546 30.0451 19.8703 30.0674 19.8847C30.0896 19.8992 30.1126 19.9124 30.1363 19.9244C30.1601 19.9364 30.1844 19.9471 30.2094 19.9564C30.2343 19.9657 30.2597 19.9737 30.2856 19.9804C30.3114 19.9869 30.3375 19.992 30.364 19.9956C30.3904 19.9994 30.417 20.0017 30.4436 20.0025C30.4703 20.0033 30.497 20.0026 30.5235 20.0005C30.5436 20.0002 30.5635 19.9991 30.5835 19.9973C30.6035 19.9954 30.6234 19.993 30.6432 19.9898C30.663 19.9865 30.6826 19.9826 30.7021 19.9778C30.7215 19.9731 30.7407 19.9677 30.7598 19.9617C30.779 19.9556 30.7978 19.9488 30.8164 19.9413C30.8349 19.9338 30.8531 19.9257 30.871 19.917C30.889 19.9081 30.9066 19.8987 30.924 19.8887C30.9412 19.8785 30.958 19.8678 30.9743 19.8565C30.9908 19.8451 31.0068 19.8332 31.0223 19.8207C31.0379 19.8083 31.0529 19.7952 31.0675 19.7817C31.082 19.7681 31.096 19.754 31.1095 19.7394C31.123 19.7247 31.1359 19.7096 31.1483 19.6941C31.1605 19.6785 31.1723 19.6625 31.1835 19.6462C31.1947 19.6297 31.2052 19.6129 31.215 19.5957C31.2249 19.5785 31.2341 19.561 31.2427 19.5432C31.2513 19.5253 31.2592 19.5071 31.2663 19.4887C31.3998 19.1745 31.2523 18.8638 31.0075 18.5383Z"   fill="#FFFFFF" ></path><path     fill="#FFFFFF"  d="M22.3276 11.7722L23.4439 12.95L18.5461 18.0587C18.5338 18.0748 18.5207 18.0901 18.5068 18.1048C18.4928 18.1196 18.4781 18.1334 18.4626 18.1464C18.447 18.1595 18.4307 18.1716 18.4139 18.1829C18.3969 18.1943 18.3794 18.2046 18.3613 18.2139C18.3432 18.2233 18.3247 18.2316 18.3056 18.2388C18.2865 18.2462 18.2671 18.2525 18.2473 18.2577C18.2276 18.2628 18.2077 18.2669 18.1874 18.2699C18.1672 18.2729 18.1469 18.2748 18.1265 18.2755C18.1106 18.2758 18.0948 18.2754 18.0789 18.2744C18.0631 18.2735 18.0473 18.2719 18.0315 18.2699C18.0159 18.2677 18.0003 18.265 17.9847 18.2617C17.9692 18.2584 17.9538 18.2546 17.9386 18.2503C17.9233 18.2459 17.9083 18.241 17.8935 18.2354C17.8787 18.2299 17.864 18.2239 17.8496 18.2172C17.8353 18.2107 17.8211 18.2036 17.8072 18.196C17.7933 18.1883 17.7798 18.1802 17.7666 18.1716C17.7534 18.163 17.7404 18.154 17.7279 18.1444C17.7154 18.1348 17.7032 18.1248 17.6914 18.1142C17.6796 18.1038 17.6682 18.0929 17.6573 18.0815C17.6463 18.0703 17.6358 18.0586 17.6257 18.0465C17.6158 18.0344 17.6062 18.022 17.5969 18.0093C17.5878 17.9964 17.5792 17.9833 17.5711 17.9698C17.563 17.9564 17.5554 17.9427 17.5482 17.9288C17.5412 17.9148 17.5347 17.9005 17.5287 17.8861C17.4341 17.6625 17.5593 17.314 17.7357 17.1291L17.7399 17.1248L17.7438 17.12L22.3276 11.7716M22.3189 11.4298L17.5674 16.9737C17.3302 17.2228 17.183 17.6596 17.3157 17.9726C17.3239 17.9922 17.3328 18.0115 17.3424 18.0305C17.3521 18.0494 17.3625 18.0679 17.3736 18.0861C17.3846 18.1044 17.3964 18.1222 17.4088 18.1395C17.4211 18.1568 17.4341 18.1736 17.4479 18.19C17.4616 18.2064 17.4758 18.2223 17.4907 18.2376C17.5056 18.2529 17.521 18.2677 17.537 18.2819C17.553 18.2962 17.5695 18.3098 17.5866 18.3227C17.6036 18.3357 17.621 18.348 17.639 18.3598C17.657 18.3715 17.6753 18.3825 17.6942 18.3928C17.713 18.4033 17.7321 18.413 17.7515 18.4219C17.7711 18.4309 17.7909 18.4391 17.8111 18.4466C17.8313 18.4541 17.8517 18.4609 17.8723 18.4669C17.893 18.4729 17.9138 18.4781 17.9349 18.4826C17.9559 18.4871 17.9771 18.4907 17.9985 18.4936C18.0198 18.4966 18.0412 18.4987 18.0627 18.5002C18.0842 18.5015 18.1057 18.5021 18.1272 18.5018C18.1553 18.5011 18.1831 18.4989 18.2108 18.4953C18.2386 18.4916 18.2661 18.4865 18.2932 18.4798C18.3204 18.4732 18.3472 18.4651 18.3735 18.4557C18.3998 18.4462 18.4255 18.4354 18.4506 18.4232C18.4757 18.411 18.5 18.3974 18.5236 18.3827C18.5472 18.3678 18.57 18.3517 18.5919 18.3345C18.6136 18.3172 18.6344 18.2988 18.6542 18.2793C18.674 18.2598 18.6927 18.2394 18.7103 18.2179L23.7609 12.9496L22.3196 11.4291L22.3189 11.4298Z"></path><path d="M12.8019 5.79083C13.1448 5.79083 13.3737 6.01604 13.5369 6.41797C13.7328 6.01604 14.0106 5.79083 14.4027 5.79083L17.147 5.79083C17.1593 5.79083 17.1716 5.79107 17.1839 5.79156C17.1962 5.79216 17.2085 5.79301 17.2208 5.7941C17.2329 5.79531 17.2451 5.79682 17.2573 5.79864C17.2695 5.80033 17.2816 5.80233 17.2938 5.80463C17.3059 5.80706 17.3178 5.80972 17.3298 5.81263C17.3417 5.81553 17.3536 5.81874 17.3654 5.82225C17.3772 5.82576 17.3889 5.82952 17.4004 5.83351C17.412 5.83763 17.4235 5.84199 17.4349 5.84659C17.4462 5.85119 17.4575 5.85609 17.4687 5.8613C17.4797 5.86639 17.4907 5.87177 17.5017 5.87746C17.5125 5.88328 17.5232 5.88927 17.5338 5.89544C17.5444 5.90162 17.5548 5.9081 17.565 5.91488C17.5752 5.92154 17.5852 5.9285 17.5952 5.93576C17.605 5.94303 17.6148 5.95047 17.6243 5.95811C17.6338 5.96573 17.6431 5.97366 17.6522 5.9819C17.6613 5.99001 17.6702 5.99836 17.6789 6.00696C17.6877 6.01543 17.6962 6.02421 17.7044 6.0333C17.7126 6.04226 17.7207 6.05139 17.7286 6.06072C17.7363 6.07016 17.7439 6.07973 17.7513 6.08942C17.7586 6.0991 17.7657 6.10903 17.7725 6.1192C17.7793 6.12925 17.7859 6.13948 17.7922 6.1499C17.7985 6.16031 17.8045 6.17085 17.8103 6.1815C17.8162 6.19216 17.8217 6.20299 17.8269 6.21401C17.8322 6.22503 17.8372 6.2361 17.8418 6.24724C17.8465 6.25851 17.8509 6.26983 17.8551 6.28121C17.8592 6.29259 17.863 6.3041 17.8665 6.31572C17.8701 6.32734 17.8734 6.33903 17.8763 6.35077C17.8793 6.36251 17.882 6.37432 17.8844 6.38619C17.8868 6.39817 17.8888 6.41016 17.8905 6.42215C17.8924 6.43414 17.8938 6.44612 17.8949 6.45811C17.8962 6.47021 17.8971 6.48233 17.8977 6.49444C17.8982 6.50654 17.8984 6.51865 17.8984 6.53076L17.8984 7.95249C17.8984 8.43488 17.6537 8.69242 17.147 8.69242C16.6571 8.69242 16.3955 8.43488 16.3955 7.95249L16.3955 7.27032L14.4516 7.27032C14.4432 7.26935 14.4348 7.26868 14.4263 7.26832C14.4178 7.26784 14.4094 7.2676 14.4009 7.2676C14.3924 7.2676 14.3839 7.26784 14.3754 7.26832C14.3671 7.26881 14.3586 7.26953 14.3501 7.2705C14.3418 7.27147 14.3334 7.27268 14.3251 7.27414C14.3167 7.27559 14.3084 7.27723 14.3002 7.27904C14.2919 7.28098 14.2837 7.28315 14.2756 7.28558C14.2675 7.28788 14.2594 7.29048 14.2515 7.29339C14.2435 7.29617 14.2356 7.2992 14.2279 7.30247C14.22 7.30574 14.2122 7.30919 14.2046 7.31282C14.1971 7.31657 14.1897 7.32051 14.1823 7.32463C14.1749 7.32874 14.1677 7.33304 14.1605 7.33752C14.1534 7.34212 14.1464 7.34685 14.1395 7.35168C14.1327 7.35665 14.126 7.3618 14.1194 7.36713C14.1129 7.37233 14.1065 7.37778 14.1002 7.38347C14.0941 7.38916 14.088 7.39497 14.0821 7.40091C14.0762 7.40696 14.0705 7.41314 14.065 7.41943C14.0594 7.42573 14.0541 7.43221 14.0489 7.43886C14.0438 7.44541 14.0388 7.45212 14.034 7.45902C14.0293 7.46593 14.0248 7.47295 14.0203 7.48009C14.016 7.48736 14.0119 7.49469 14.008 7.50207C14.0041 7.50946 14.0003 7.5169 13.9967 7.52441C13.9933 7.53204 13.99 7.53972 13.987 7.54747C13.9839 7.55534 13.9811 7.56322 13.9785 7.57108C13.9759 7.57908 13.9735 7.58707 13.9713 7.59506C13.9692 7.60317 13.9673 7.61135 13.9656 7.61958C13.964 7.6277 13.9626 7.63587 13.9613 7.6441C13.9602 7.65245 13.9593 7.66075 13.9586 7.66898C13.9578 7.67733 13.9573 7.68569 13.9571 7.69404C13.957 7.7024 13.957 7.71075 13.9573 7.71911C13.9575 7.72746 13.958 7.73576 13.9587 7.74399C13.9595 7.75234 13.9605 7.76064 13.9617 7.76887L13.9617 12.7068L15.8075 12.7068C16.2978 12.7068 16.559 12.9482 16.559 13.4467C16.559 13.9453 16.2978 14.1867 15.8075 14.1867L10.9398 14.1867C10.4494 14.1867 10.2046 13.9455 10.2046 13.4467C10.2046 12.948 10.4494 12.7068 10.9398 12.7068L12.459 12.7068L12.459 7.27032L11.1193 7.27032C10.6294 7.27032 10.3842 7.02895 10.3842 6.5304C10.3842 6.04764 10.6294 5.79047 11.1193 5.79047L12.8019 5.79083Z"   fill="#FFFFFF" ></path><path d="M33.3983 5.79084C33.8882 5.79084 34.1497 6.04801 34.1497 6.53076L34.1497 12.7072L36.0127 12.7072C36.5192 12.7072 36.7641 12.9485 36.7641 13.4471C36.7641 13.9457 36.5192 14.187 36.0127 14.187L30.7361 14.187C30.2462 14.187 29.9846 13.9458 29.9846 13.4471C29.9846 12.9484 30.2462 12.7072 30.7361 12.7072L32.6474 12.7072L32.6474 7.27033L31.0734 7.27033C30.5673 7.27033 30.3222 7.02895 30.3222 6.5304C30.3222 6.04765 30.5673 5.79047 31.0734 5.79047L33.3983 5.79084ZM34.1767 2.59158C34.1768 2.60901 34.1765 2.62645 34.1757 2.64389C34.175 2.66132 34.1738 2.67876 34.1722 2.69619C34.1705 2.71363 34.1684 2.73101 34.166 2.74832C34.1635 2.76551 34.1606 2.78271 34.1573 2.7999C34.1538 2.81709 34.15 2.83417 34.1459 2.85112C34.1417 2.86807 34.1371 2.8849 34.132 2.90161C34.127 2.91844 34.1215 2.93508 34.1156 2.95155C34.1097 2.96802 34.1034 2.98431 34.0968 3.00041C34.09 3.01663 34.0829 3.03268 34.0754 3.04854C34.068 3.06428 34.0601 3.0799 34.0518 3.0954C34.0435 3.1109 34.0349 3.12615 34.0258 3.14117C34.0168 3.15618 34.0074 3.17095 33.9976 3.18548C33.9878 3.20001 33.9777 3.21436 33.9671 3.22853C33.9567 3.24257 33.9458 3.25638 33.9347 3.26994C33.9235 3.2835 33.912 3.29676 33.9002 3.30971C33.8882 3.32279 33.8761 3.3355 33.8636 3.34785C33.8511 3.3602 33.8383 3.37231 33.8253 3.38417C33.8121 3.39592 33.7987 3.40736 33.7851 3.4185C33.7714 3.42965 33.7575 3.44047 33.7434 3.45101C33.7291 3.46143 33.7147 3.47153 33.7 3.48134C33.6853 3.49104 33.6703 3.50041 33.6552 3.50949C33.64 3.51846 33.6245 3.52711 33.6089 3.53546C33.5933 3.54371 33.5775 3.55157 33.5615 3.55907C33.5455 3.5667 33.5294 3.57386 33.513 3.5805C33.4966 3.5873 33.4801 3.59365 33.4634 3.59957C33.4467 3.60551 33.4298 3.61102 33.4128 3.6161C33.3959 3.62131 33.3788 3.62604 33.3617 3.63027C33.3445 3.63463 33.3272 3.63851 33.3097 3.64189C33.2924 3.64541 33.2749 3.64843 33.2573 3.65097C33.2399 3.65364 33.2223 3.65582 33.2046 3.65751C33.187 3.65933 33.1694 3.66067 33.1517 3.66151C33.1339 3.66249 33.1162 3.66296 33.0984 3.66296C33.0806 3.66296 33.0629 3.66254 33.0452 3.66169C33.0275 3.66096 33.0098 3.65976 32.9921 3.65806C32.9745 3.65637 32.9569 3.65424 32.9394 3.6517C32.9218 3.64916 32.9043 3.6462 32.887 3.6428C32.8695 3.63942 32.8522 3.63566 32.835 3.63154C32.8177 3.62731 32.8006 3.62264 32.7837 3.61755C32.7667 3.61247 32.7498 3.60702 32.7331 3.60121C32.7164 3.59529 32.6999 3.58898 32.6835 3.58232C32.6672 3.57567 32.6509 3.56864 32.6348 3.56125C32.6188 3.55375 32.603 3.54589 32.5874 3.53764C32.5717 3.52954 32.5562 3.52093 32.5411 3.51185C32.5259 3.5029 32.5109 3.49358 32.4961 3.48388C32.4814 3.4742 32.4668 3.46416 32.4526 3.45373C32.4383 3.44345 32.4243 3.43274 32.4105 3.42158C32.3969 3.41058 32.3835 3.39919 32.3703 3.38744C32.3572 3.37571 32.3443 3.36365 32.3318 3.3513C32.3192 3.33895 32.307 3.3263 32.2951 3.31334C32.2831 3.30039 32.2716 3.28719 32.2604 3.27375C32.2492 3.26019 32.2383 3.24639 32.2277 3.23234C32.2171 3.2183 32.207 3.20401 32.1971 3.18948C32.1873 3.17495 32.1778 3.16018 32.1687 3.14516C32.1595 3.13027 32.1508 3.11508 32.1425 3.09957C32.1341 3.0842 32.1262 3.06864 32.1185 3.0529C32.111 3.03704 32.1039 3.02106 32.0971 3.00495C32.0904 2.98885 32.084 2.97256 32.078 2.95609C32.0721 2.93963 32.0665 2.92304 32.0614 2.90633C32.0562 2.88962 32.0515 2.87279 32.0472 2.85584C32.043 2.83889 32.0392 2.82182 32.0357 2.80462C32.0323 2.78755 32.0293 2.77036 32.0267 2.75304C32.0241 2.73573 32.0219 2.71841 32.0202 2.7011C32.0185 2.68366 32.0173 2.66622 32.0165 2.64879C32.0157 2.63135 32.0152 2.61392 32.0152 2.59648C32.0152 2.57893 32.0157 2.56143 32.0167 2.54399C32.0176 2.52656 32.0189 2.50918 32.0208 2.49187C32.0225 2.47443 32.0247 2.45712 32.0274 2.43992C32.03 2.42261 32.0331 2.40542 32.0366 2.38834C32.0401 2.37115 32.044 2.35408 32.0485 2.33713C32.0527 2.3203 32.0575 2.30353 32.0628 2.28682C32.068 2.27011 32.0736 2.25352 32.0796 2.23705C32.0856 2.22059 32.0921 2.2043 32.099 2.1882C32.1057 2.1721 32.113 2.15617 32.1208 2.14043C32.1284 2.12469 32.1364 2.10913 32.1447 2.09376C32.1532 2.07838 32.162 2.06324 32.1711 2.04835C32.1803 2.03334 32.1898 2.01856 32.1997 2.00403C32.2097 1.98963 32.22 1.9754 32.2307 1.96135C32.2413 1.94743 32.2522 1.93375 32.2635 1.92031C32.2748 1.90686 32.2864 1.89367 32.2984 1.88071C32.3104 1.86788 32.3227 1.85529 32.3353 1.84294C32.3479 1.83071 32.3608 1.81872 32.374 1.80697C32.3872 1.79535 32.4006 1.78403 32.4144 1.77301C32.4282 1.76199 32.4422 1.75134 32.4565 1.74105C32.4708 1.73063 32.4854 1.72064 32.5002 1.71108C32.5149 1.70139 32.5299 1.69213 32.5452 1.68329C32.5605 1.67433 32.576 1.66579 32.5917 1.65768C32.6074 1.64957 32.6233 1.64182 32.6392 1.63443C32.6554 1.62705 32.6716 1.62002 32.6881 1.61337C32.7045 1.60683 32.721 1.60065 32.7377 1.59484C32.7546 1.58903 32.7715 1.58364 32.7885 1.57868C32.8054 1.57371 32.8225 1.56917 32.8397 1.56505C32.857 1.56094 32.8743 1.55719 32.8918 1.55379C32.9092 1.55053 32.9267 1.54768 32.9441 1.54526C32.9617 1.54284 32.9794 1.54078 32.9971 1.53908C33.0148 1.53751 33.0325 1.53636 33.0502 1.53563C33.0679 1.5349 33.0856 1.5346 33.1033 1.53472C33.1208 1.53496 33.1382 1.53563 33.1557 1.53672C33.1732 1.53781 33.1906 1.53926 33.2081 1.54108C33.2254 1.54302 33.2428 1.54532 33.2601 1.54798C33.2773 1.55077 33.2945 1.55391 33.3118 1.55743C33.3289 1.56094 33.3459 1.56487 33.3629 1.56923C33.3797 1.57359 33.3965 1.57831 33.4132 1.5834C33.4299 1.5886 33.4465 1.59417 33.463 1.60011C33.4794 1.60604 33.4957 1.61234 33.5119 1.619C33.528 1.62566 33.5439 1.63274 33.5597 1.64024C33.5754 1.64775 33.5909 1.65556 33.6063 1.66367C33.6217 1.67191 33.6369 1.6805 33.6519 1.68947C33.6669 1.69843 33.6816 1.70769 33.6962 1.71725C33.7107 1.72682 33.7249 1.73681 33.739 1.74722C33.753 1.75751 33.7667 1.76811 33.7803 1.77901C33.7938 1.79002 33.807 1.80128 33.8199 1.81279C33.8329 1.82441 33.8456 1.83634 33.8579 1.84856C33.8703 1.86067 33.8825 1.87314 33.8943 1.88598C33.9059 1.89869 33.9174 1.91171 33.9286 1.92503C33.9396 1.93835 33.9504 1.95191 33.9608 1.96571C33.9714 1.97952 33.9816 1.99356 33.9913 2.00785C34.001 2.02214 34.0104 2.03667 34.0195 2.05144C34.0286 2.06609 34.0373 2.08104 34.0457 2.0963C34.0539 2.11143 34.0619 2.12675 34.0695 2.14225C34.077 2.15775 34.0842 2.17343 34.0911 2.18929C34.0978 2.20527 34.1042 2.22131 34.1103 2.23742C34.1163 2.25364 34.1219 2.26999 34.1272 2.28645C34.1324 2.30292 34.1372 2.31945 34.1416 2.33604C34.146 2.35275 34.15 2.36952 34.1536 2.38635C34.1572 2.4033 34.1604 2.42025 34.1632 2.4372C34.1659 2.45427 34.1682 2.47135 34.1702 2.48842C34.172 2.50561 34.1735 2.52281 34.1746 2.54C34.1757 2.55719 34.1764 2.57439 34.1767 2.59158Z"   fill="#FFFFFF" ></path><path d="M45.5553 6.53076C45.5564 6.63017 45.54 6.72668 45.5061 6.82027L42.7622 13.7361C42.756 13.7531 42.7492 13.77 42.7417 13.7865C42.7342 13.8031 42.726 13.8194 42.7172 13.8354C42.7083 13.8514 42.6988 13.867 42.6887 13.8821C42.6787 13.8973 42.668 13.9121 42.6567 13.9264C42.6453 13.9407 42.6335 13.9545 42.6211 13.968C42.6085 13.9814 42.5955 13.9943 42.582 14.0067C42.5686 14.019 42.5546 14.0308 42.5401 14.0421C42.5256 14.0533 42.5106 14.064 42.4953 14.0741C42.48 14.0841 42.4643 14.0936 42.4482 14.1024C42.4321 14.1112 42.4156 14.1194 42.3988 14.1269C42.382 14.1344 42.3649 14.1413 42.3475 14.1474C42.3302 14.1536 42.3127 14.1591 42.2949 14.1638C42.2771 14.1686 42.2591 14.1727 42.2409 14.1759C42.2228 14.1793 42.2046 14.182 42.1863 14.1839C42.168 14.1858 42.1496 14.1869 42.1311 14.1874C42.1127 14.1877 42.0943 14.1875 42.0758 14.1865L40.9815 14.1865C40.9627 14.1881 40.9439 14.1889 40.925 14.189C40.9062 14.189 40.8874 14.1883 40.8688 14.1868C40.8499 14.1854 40.8313 14.1832 40.8127 14.1801C40.7941 14.1771 40.7757 14.1733 40.7576 14.1689C40.7392 14.1644 40.7211 14.1592 40.7033 14.1532C40.6855 14.1472 40.668 14.1405 40.6507 14.1331C40.6335 14.1257 40.6166 14.1176 40.6 14.1087C40.5834 14.1 40.5673 14.0906 40.5515 14.0804C40.5357 14.0702 40.5204 14.0595 40.5056 14.0483C40.4907 14.0369 40.4763 14.0249 40.4624 14.0123C40.4485 13.9998 40.4352 13.9868 40.4226 13.9731C40.4098 13.9594 40.3976 13.9453 40.3861 13.9308C40.3745 13.9161 40.3635 13.901 40.3532 13.8855C40.3429 13.87 40.3332 13.8541 40.3243 13.8378C40.3153 13.8214 40.3071 13.8048 40.2995 13.7878C40.2921 13.7709 40.2852 13.7536 40.2791 13.7361L37.5022 6.81973C37.4788 6.77505 37.4616 6.72819 37.4505 6.67915C37.4394 6.63011 37.4348 6.58047 37.4367 6.53022C37.4367 6.51799 37.437 6.5057 37.4378 6.49335C37.4384 6.48113 37.4393 6.46889 37.4405 6.45667C37.4418 6.44455 37.4434 6.43239 37.4453 6.42016C37.4472 6.40805 37.4493 6.396 37.4518 6.38402C37.4543 6.37191 37.457 6.35992 37.4601 6.34805C37.4633 6.33619 37.4667 6.32438 37.4702 6.31264C37.4739 6.3009 37.4779 6.28927 37.4822 6.27777C37.4865 6.26626 37.4911 6.25488 37.4959 6.24362C37.5008 6.23224 37.506 6.22104 37.5114 6.21002C37.5168 6.19888 37.5224 6.18792 37.5283 6.17715C37.5344 6.16637 37.5406 6.15578 37.547 6.14536C37.5535 6.13483 37.5603 6.12454 37.5673 6.11449C37.5743 6.10432 37.5815 6.09433 37.589 6.08452C37.5967 6.07472 37.6045 6.06509 37.6125 6.05564C37.6204 6.04632 37.6287 6.03712 37.6372 6.02804C37.6457 6.01908 37.6543 6.0103 37.6632 6.0017C37.672 5.9931 37.6811 5.98475 37.6905 5.97664C37.6998 5.96852 37.7094 5.96059 37.7191 5.95284C37.7288 5.94522 37.7388 5.93783 37.749 5.93069C37.759 5.92342 37.7693 5.91646 37.7798 5.9098C37.7902 5.90314 37.8008 5.89672 37.8115 5.89055C37.8223 5.88438 37.8332 5.8785 37.8443 5.87293C37.8554 5.86724 37.8666 5.86185 37.8779 5.85677C37.8893 5.85168 37.9008 5.8469 37.9124 5.84242C37.9239 5.83782 37.9356 5.83358 37.9474 5.82971C37.9592 5.82571 37.9712 5.82202 37.9832 5.81863C37.9951 5.81524 38.0072 5.81215 38.0194 5.80936C38.0314 5.80658 38.0436 5.8041 38.0559 5.80192C38.0682 5.79974 38.0805 5.79786 38.0928 5.79629C38.1052 5.79471 38.1176 5.79344 38.13 5.79247C38.1425 5.79151 38.1549 5.79084 38.1673 5.79047C38.1798 5.79011 38.1923 5.79005 38.2047 5.79029C38.2235 5.78981 38.2424 5.79011 38.2612 5.7912C38.28 5.79217 38.2987 5.79393 38.3174 5.79647C38.3361 5.79901 38.3547 5.80228 38.3731 5.80628C38.3915 5.81027 38.4097 5.81499 38.4277 5.82044C38.4458 5.82589 38.4636 5.83207 38.481 5.83897C38.4985 5.84575 38.5157 5.85326 38.5327 5.86149C38.5495 5.86972 38.5661 5.87862 38.5823 5.88819C38.5984 5.89775 38.6142 5.90792 38.6295 5.9187C38.6449 5.92948 38.6598 5.94086 38.6742 5.95284C38.6885 5.96483 38.7024 5.97736 38.7158 5.99044C38.7293 6.00352 38.742 6.01708 38.7542 6.03112C38.7665 6.04517 38.7782 6.0597 38.7893 6.07472C38.8003 6.08973 38.8108 6.10517 38.8206 6.12102C38.8305 6.13689 38.8396 6.15312 38.8481 6.1697C38.8566 6.18629 38.8643 6.20318 38.8713 6.22038C38.8785 6.23757 38.8849 6.255 38.8905 6.27268L41.537 12.8354L44.1009 6.27268C44.1066 6.255 44.113 6.23757 44.1201 6.22038C44.1272 6.20318 44.135 6.18629 44.1435 6.1697C44.152 6.15312 44.1612 6.13689 44.171 6.12102C44.1807 6.10517 44.1912 6.08973 44.2024 6.07472C44.2134 6.0597 44.2251 6.04511 44.2372 6.03095C44.2495 6.0169 44.2624 6.00334 44.2758 5.99026C44.2892 5.97718 44.3031 5.96465 44.3175 5.95267C44.3319 5.94068 44.3467 5.9293 44.3621 5.91852C44.3775 5.90774 44.3933 5.89757 44.4095 5.88801C44.4256 5.87856 44.4421 5.86972 44.4591 5.86149C44.476 5.85326 44.4932 5.84569 44.5108 5.83879C44.5282 5.83201 44.546 5.82589 44.5641 5.82044C44.582 5.81499 44.6002 5.81027 44.6187 5.80628C44.6371 5.80228 44.6557 5.79901 44.6744 5.79647C44.6931 5.79393 44.7118 5.79217 44.7306 5.7912C44.7494 5.79011 44.7683 5.78981 44.7871 5.79029C44.7995 5.79005 44.812 5.79011 44.8245 5.79047C44.8369 5.79084 44.8494 5.79151 44.8618 5.79247C44.8742 5.79344 44.8866 5.79471 44.8991 5.79629C44.9115 5.79786 44.9238 5.79974 44.9359 5.80192C44.9482 5.8041 44.9605 5.80658 44.9726 5.80936C44.9848 5.81215 44.9969 5.81524 45.0088 5.81863C45.0208 5.82202 45.0328 5.82571 45.0446 5.82971C45.0564 5.83358 45.0681 5.83782 45.0796 5.84242C45.0913 5.8469 45.1028 5.85168 45.1141 5.85677C45.1254 5.86185 45.1366 5.86724 45.1477 5.87293C45.1587 5.8785 45.1697 5.88438 45.1805 5.89055C45.1913 5.89672 45.202 5.90314 45.2124 5.9098C45.2229 5.91658 45.2332 5.92354 45.2432 5.93069C45.2533 5.93783 45.2632 5.94528 45.2729 5.95303C45.2828 5.96065 45.2924 5.96858 45.3017 5.97682C45.3109 5.98493 45.32 5.99329 45.329 6.00188C45.3378 6.01048 45.3465 6.01926 45.355 6.02822C45.3635 6.0373 45.3717 6.0465 45.3797 6.05583C45.3877 6.06527 45.3955 6.07489 45.403 6.0847C45.4106 6.09451 45.4179 6.1045 45.4249 6.11467C45.4319 6.12484 45.4386 6.13513 45.445 6.14555C45.4515 6.15608 45.4578 6.16673 45.4638 6.17751C45.4697 6.18829 45.4754 6.19925 45.4808 6.21038C45.4862 6.2214 45.4914 6.23254 45.4963 6.24381C45.5011 6.25518 45.5056 6.26663 45.5099 6.27813C45.5141 6.28963 45.5181 6.30125 45.5217 6.313C45.5255 6.32474 45.5288 6.33661 45.5319 6.3486C45.535 6.36047 45.5377 6.37239 45.5402 6.38438C45.5428 6.39649 45.545 6.40859 45.5468 6.4207C45.5487 6.43281 45.5502 6.44498 45.5515 6.45721C45.5528 6.46943 45.5538 6.48167 45.5544 6.4939C45.555 6.50624 45.5553 6.51854 45.5553 6.53076Z"   fill="#FFFFFF" ></path><path d="M5.98433 5.7908C6.90991 5.7908 7.49794 6.39233 7.49794 7.31642L7.49794 14.1874L0.948424 14.1874C0.933052 14.1884 0.917678 14.1891 0.902311 14.1894C0.886815 14.1896 0.87138 14.1894 0.856012 14.1888C0.84064 14.1883 0.825267 14.1874 0.809899 14.1861C0.794527 14.1848 0.779215 14.183 0.763972 14.181C0.748724 14.1788 0.733536 14.1763 0.718411 14.1736C0.703286 14.1706 0.688223 14.1674 0.673222 14.1637C0.658338 14.16 0.643523 14.1559 0.628769 14.1516C0.614009 14.1471 0.59938 14.1423 0.584868 14.1372C0.570357 14.132 0.55603 14.1264 0.54189 14.1205C0.527627 14.1146 0.513547 14.1083 0.499651 14.1018C0.485876 14.0951 0.472227 14.0881 0.458704 14.0807C0.445179 14.0735 0.431894 14.0658 0.418863 14.0579C0.405702 14.0499 0.392789 14.0415 0.380124 14.0328C0.367458 14.0242 0.355041 14.0152 0.342865 14.0059C0.330695 13.9966 0.318766 13.987 0.307081 13.977C0.295525 13.9671 0.284149 13.9569 0.272958 13.9463C0.261893 13.9359 0.251073 13.9251 0.240496 13.914C0.22992 13.903 0.219651 13.8917 0.209695 13.88C0.19973 13.8686 0.190076 13.8567 0.180732 13.8446C0.171388 13.8325 0.16241 13.8202 0.153803 13.8078C0.145073 13.7952 0.136708 13.7824 0.12872 13.7694C0.120727 13.7565 0.113038 13.7433 0.105664 13.73C0.0984079 13.7166 0.0914561 13.703 0.0848196 13.6893C0.0783012 13.6757 0.0720924 13.6618 0.0661875 13.6478C0.0602882 13.6337 0.0548168 13.6195 0.0497732 13.6053C0.0446058 13.5909 0.0398718 13.5764 0.0355713 13.5618C0.0311411 13.5473 0.0271446 13.5327 0.0235814 13.5179C0.0200126 13.5031 0.0168772 13.4883 0.0141753 13.4734C0.0113439 13.4584 0.00894597 13.4434 0.00698143 13.4284C0.00501128 13.4133 0.00341263 13.3983 0.0021855 13.3831C0.000952748 13.368 0.000153427 13.3529 -0.000212459 13.3377C-0.000583975 13.3225 -0.000583975 13.3073 -0.000212459 13.2921L-0.000212459 10.9258C-0.000212459 10.9036 0.000339184 10.8815 0.00144809 10.8595C0.00242755 10.8373 0.00390798 10.8152 0.00587252 10.7932C0.00796088 10.7712 0.0104827 10.7492 0.0134379 10.7273C0.0165114 10.7054 0.0200126 10.6835 0.0239473 10.6617C0.0280058 10.6399 0.0324978 10.6183 0.037412 10.5967C0.0423317 10.575 0.047803 10.5535 0.0538318 10.5322C0.059731 10.5109 0.0661256 10.4897 0.0730156 10.4686C0.0798999 10.4476 0.0872794 10.4267 0.0951489 10.406C0.102894 10.3852 0.111135 10.3646 0.119866 10.3442C0.128596 10.3239 0.137817 10.3037 0.147532 10.2836C0.157248 10.2636 0.16733 10.2439 0.177783 10.2244C0.188359 10.2049 0.199365 10.1856 0.210798 10.1664C0.222235 10.1474 0.234038 10.1287 0.246214 10.1101C0.258508 10.0915 0.271174 10.0732 0.284211 10.0553C0.297366 10.0372 0.310892 10.0195 0.324791 10.0021C0.338684 9.98475 0.352953 9.96768 0.367582 9.95085C0.382218 9.93401 0.397219 9.91755 0.412592 9.90145C0.427958 9.88533 0.443697 9.86953 0.459807 9.85404C0.475918 9.83866 0.492332 9.82358 0.509056 9.80882C0.525904 9.79405 0.542993 9.7797 0.560337 9.76577C0.577798 9.75173 0.595564 9.73811 0.613644 9.72491C0.631595 9.71171 0.649916 9.69894 0.668605 9.68659C0.687176 9.67411 0.706049 9.66207 0.725234 9.65044C0.744293 9.63895 0.763662 9.6278 0.783336 9.61703C0.80301 9.60624 0.822869 9.59596 0.842914 9.58615C0.863082 9.57622 0.883431 9.56677 0.903966 9.55782C0.924506 9.54886 0.945227 9.54033 0.966128 9.53221C0.987033 9.52409 1.00812 9.51646 1.0294 9.50932C1.05067 9.50217 1.07213 9.49547 1.09377 9.48916C1.11529 9.48299 1.13693 9.47723 1.1587 9.47191C1.18059 9.46659 1.20254 9.46179 1.22454 9.45756C1.24656 9.4532 1.26869 9.44933 1.29095 9.44594L5.99576 8.79719L5.99576 7.27156L0.763601 7.27156C0.751182 7.27192 0.738699 7.27199 0.726156 7.27175C0.713739 7.2715 0.701253 7.27096 0.688712 7.27011C0.676295 7.26926 0.663872 7.26811 0.651453 7.26666C0.639159 7.26521 0.626799 7.26345 0.614382 7.26139C0.602082 7.25933 0.58985 7.25691 0.577674 7.25413C0.565498 7.25146 0.553446 7.2485 0.54152 7.24522C0.529468 7.24196 0.517539 7.23833 0.505736 7.23433C0.493807 7.23045 0.482065 7.22628 0.470509 7.2218C0.458823 7.21732 0.447329 7.21259 0.436015 7.20763C0.424575 7.20255 0.413329 7.19722 0.402257 7.19165C0.391071 7.18596 0.380124 7.18009 0.369428 7.17403C0.358604 7.16786 0.347971 7.16144 0.337518 7.15478C0.326941 7.148 0.316612 7.14104 0.30653 7.13389C0.296448 7.12663 0.286546 7.11918 0.276831 7.11155C0.266996 7.1038 0.257468 7.09587 0.248241 7.08776C0.238897 7.07965 0.229733 7.07123 0.22076 7.06252C0.211906 7.05392 0.203237 7.04508 0.194748 7.036C0.186389 7.02704 0.178211 7.01784 0.170217 7.00839C0.162224 6.99883 0.154479 6.98914 0.146981 6.97933C0.139601 6.96953 0.132407 6.95953 0.125399 6.94936C0.118391 6.93907 0.111687 6.92866 0.105292 6.91813C0.0988977 6.90759 0.0927508 6.89694 0.086846 6.88616C0.0809468 6.87526 0.0753515 6.86424 0.0700603 6.8531C0.0647746 6.84197 0.059731 6.83077 0.0549351 6.81951C0.0502629 6.80813 0.0458386 6.79662 0.0416562 6.785C0.0375977 6.77337 0.0337869 6.76169 0.030218 6.74994C0.0266549 6.73808 0.0233956 6.72621 0.0204461 6.71435C0.0174908 6.70236 0.0148508 6.69031 0.0125148 6.67821C0.0101787 6.66622 0.00820857 6.65411 0.00660992 6.64188C0.00488744 6.62977 0.00347455 6.61754 0.00236563 6.60519C0.00138619 6.59297 0.000648781 6.58073 0.000153427 6.56851C-0.000336298 6.55616 -0.000460136 6.54386 -0.000212459 6.53163C-0.000212459 6.01038 0.395069 5.79171 0.803072 5.79171L5.98433 5.7908ZM5.99521 12.7071L5.99521 10.2928L1.50307 10.9104L1.50307 12.7084L5.99521 12.7071Z"   fill="#FFFFFF" ></path><path     fill="#FFFFFF"  d="M16.6693 0.22703L16.6835 0.22703C16.868 0.231389 17.096 0.453149 17.1611 0.530155L17.1653 0.53524L17.1697 0.539962L25.777 9.69969C25.7894 9.713 25.8012 9.72686 25.8124 9.74128C25.8235 9.75557 25.8339 9.77039 25.8436 9.78578C25.8533 9.80116 25.8622 9.81696 25.8703 9.83318C25.8786 9.84929 25.886 9.86582 25.8926 9.88276C25.8992 9.8996 25.9049 9.91667 25.91 9.93398C25.9149 9.95142 25.919 9.96903 25.9223 9.98683C25.9257 10.0046 25.9281 10.0226 25.9295 10.0406C25.9311 10.0585 25.9319 10.0766 25.9318 10.0947C25.9316 10.1128 25.9306 10.1308 25.9288 10.1488C25.927 10.1668 25.9243 10.1846 25.9207 10.2022C25.917 10.22 25.9126 10.2376 25.9074 10.2549C25.9021 10.2722 25.896 10.2892 25.8891 10.3059C25.8823 10.3228 25.8746 10.3392 25.8663 10.3552C25.8578 10.3713 25.8486 10.3869 25.8386 10.4022C25.8286 10.4173 25.818 10.432 25.8067 10.4462C25.7954 10.4604 25.7834 10.4741 25.7707 10.4872L24.8682 11.4316L23.5999 9.95432L16.3214 1.29496C16.0433 0.901571 16.0232 0.779885 16.1018 0.594269C16.1137 0.567147 16.1275 0.541052 16.1433 0.515988C16.1591 0.490805 16.1767 0.466952 16.196 0.444429C16.2153 0.421788 16.2362 0.400659 16.2585 0.381043C16.2811 0.361428 16.3048 0.343509 16.3299 0.327285C16.3549 0.311059 16.381 0.296713 16.4083 0.284241C16.4355 0.271767 16.4635 0.261295 16.4922 0.25282C16.5209 0.244464 16.5501 0.238107 16.5799 0.23375C16.6095 0.229511 16.6393 0.227393 16.6693 0.227393M16.6693 0.000366211C16.6487 0.000366211 16.6281 0.0010923 16.6075 0.00254447C16.587 0.00411859 16.5665 0.00635782 16.5461 0.00926495C16.5257 0.0121721 16.5054 0.0158635 16.4852 0.0203448C16.4651 0.0247041 16.4451 0.0297895 16.4253 0.0356008C16.4056 0.0415342 16.3861 0.0480719 16.3668 0.0552163C16.3475 0.0624799 16.3285 0.0704115 16.3098 0.0790082C16.2911 0.0876047 16.2728 0.0968665 16.2549 0.106796C16.2369 0.116726 16.2193 0.12726 16.2019 0.138398C16.1847 0.149658 16.1679 0.161463 16.1516 0.173815C16.1352 0.186163 16.1193 0.19912 16.104 0.21268C16.0886 0.226244 16.0737 0.240288 16.0593 0.254818C16.0451 0.269348 16.0313 0.284422 16.018 0.30004C16.0047 0.31566 15.9921 0.331704 15.98 0.34817C15.968 0.364637 15.9565 0.381528 15.9457 0.398844C15.935 0.41616 15.9249 0.433835 15.9153 0.451876C15.9058 0.469918 15.897 0.488262 15.8889 0.506909C15.7589 0.814213 15.852 1.02998 16.1377 1.43318L23.4223 10.1005L24.859 11.774L25.9386 10.6441C25.9562 10.6258 25.9729 10.6068 25.9887 10.5871C26.0046 10.5672 26.0194 10.5467 26.0332 10.5255C26.0471 10.5043 26.0599 10.4825 26.0716 10.4601C26.0834 10.4377 26.0941 10.4149 26.1037 10.3915C26.1133 10.3682 26.1217 10.3445 26.1289 10.3203C26.1363 10.2962 26.1424 10.2718 26.1474 10.2471C26.1523 10.2223 26.156 10.1973 26.1586 10.1723C26.1612 10.1472 26.1626 10.1221 26.1629 10.0969C26.163 10.0717 26.1619 10.0466 26.1597 10.0215C26.1575 9.99646 26.1541 9.97152 26.1494 9.9467C26.1448 9.92187 26.1391 9.89735 26.1321 9.87314C26.1252 9.84893 26.1171 9.82506 26.1077 9.80158C26.0985 9.7781 26.0882 9.75508 26.0767 9.73256C26.0653 9.71004 26.0528 9.68807 26.0393 9.66663C26.0258 9.64533 26.0112 9.62463 25.9958 9.60452C25.9801 9.58454 25.9637 9.56529 25.9463 9.54676L17.3391 0.386855C17.3391 0.386855 17.0231 0.00908481 16.6891 0.0010923L16.6693 0.000366211Z"></path></g><defs><clipPath id="clip-path-40_171"><path d="M0 20L45.5556 20L45.5556 0L0 0L0 20Z" fill="white"/></clipPath></defs></svg>