<svg xmlns="http://www.w3.org/2000/svg" xmlns:xlink="http://www.w3.org/1999/xlink" width="20" height="20" viewBox="0 0 20 20" fill="none"><path d="M13.73 19.175L2.92503 19.175C1.81003 19.175 0.905029 18.27 0.905029 17.155L0.905029 5.99C0.905029 4.875 1.81003 3.97 2.92503 3.97L13.73 3.97C14.845 3.97 15.75 4.875 15.75 5.99L15.75 17.155C15.75 18.27 14.84 19.175 13.73 19.175ZM2.92503 5.17C2.47503 5.17 2.10503 5.54 2.10503 5.99L2.10503 17.155C2.10503 17.605 2.47503 17.975 2.92503 17.975L13.73 17.975C14.18 17.975 14.55 17.605 14.55 17.155L14.55 5.99C14.55 5.54 14.18 5.17 13.73 5.17L2.92503 5.17Z"   fill="#E8A107" ></path><path d="M17.07 17.385L15.765 17.385C15.435 17.385 15.165 17.115 15.165 16.785C15.165 16.455 15.435 16.185 15.765 16.185L17.07 16.185C17.565 16.185 17.97 15.78 17.97 15.285L17.97 2.98C17.97 2.485 17.565 2.08 17.07 2.08L5.74502 2.08C5.25002 2.08 4.84502 2.485 4.84502 2.98L4.84502 4.135C4.84502 4.465 4.57502 4.735 4.24502 4.735C3.91502 4.735 3.64502 4.465 3.64502 4.135L3.64502 2.98C3.64502 1.82 4.58502 0.880005 5.74502 0.880005L17.07 0.880005C18.23 0.880005 19.17 1.82 19.17 2.98L19.17 15.29C19.17 16.445 18.225 17.385 17.07 17.385Z"   fill="#E8A107" ></path><path d="M15.06 10.195L1.62002 10.195C1.29002 10.195 1.02002 9.92501 1.02002 9.59501C1.02002 9.26501 1.29002 8.99501 1.62002 8.99501L15.06 8.99501C15.39 8.99501 15.66 9.26501 15.66 9.59501C15.66 9.92501 15.39 10.195 15.06 10.195ZM12.735 7.64501L6.37002 7.64501C6.06502 7.64501 5.82002 7.40001 5.82002 7.09501C5.82002 6.79001 6.06502 6.54501 6.37002 6.54501L12.735 6.54501C13.04 6.54501 13.285 6.79001 13.285 7.09501C13.285 7.40001 13.04 7.64501 12.735 7.64501Z"   fill="#E8A107" ></path><path d="M3.67505 7.14499C3.67505 7.15579 3.67532 7.16659 3.67585 7.17737C3.67637 7.18816 3.67716 7.19893 3.67823 7.20967C3.67929 7.22043 3.68061 7.23114 3.6822 7.24182C3.68377 7.25251 3.68562 7.26315 3.68772 7.27374C3.68983 7.28434 3.6922 7.29487 3.69483 7.30536C3.69745 7.31582 3.70033 7.32623 3.70347 7.33657C3.7066 7.34691 3.70999 7.35716 3.71362 7.36733C3.71727 7.3775 3.72116 7.38758 3.72528 7.39756C3.72942 7.40754 3.7338 7.41741 3.73841 7.42717C3.74303 7.43694 3.74789 7.44658 3.75298 7.4561C3.75807 7.46563 3.7634 7.47503 3.76895 7.4843C3.7745 7.49356 3.78028 7.50268 3.78628 7.51167C3.79228 7.52065 3.7985 7.52948 3.80493 7.53815C3.81136 7.54682 3.818 7.55533 3.82485 7.56368C3.83172 7.57204 3.83877 7.58021 3.84603 7.58821C3.85328 7.59622 3.86072 7.60404 3.86835 7.61168C3.87599 7.61932 3.88382 7.62675 3.89183 7.63401C3.89982 7.64126 3.908 7.64832 3.91636 7.65518C3.9247 7.66203 3.93321 7.66867 3.94188 7.6751C3.95056 7.68153 3.95938 7.68775 3.96837 7.69376C3.97735 7.69976 3.98647 7.70553 3.99573 7.71108C4.005 7.71664 4.0144 7.72196 4.02394 7.72706C4.03345 7.73215 4.0431 7.737 4.05286 7.74163C4.06263 7.74624 4.0725 7.75061 4.08247 7.75475C4.09246 7.75888 4.10254 7.76276 4.11271 7.76641C4.12287 7.77004 4.13313 7.77343 4.14347 7.77657C4.1538 7.7797 4.16421 7.78258 4.17468 7.7852C4.18516 7.78783 4.19569 7.7902 4.20628 7.79231C4.21688 7.79442 4.22752 7.79626 4.23821 7.79784C4.24889 7.79943 4.25961 7.80075 4.27036 7.8018C4.2811 7.80287 4.29187 7.80366 4.30267 7.80418C4.31345 7.80472 4.32424 7.80499 4.33505 7.80499C4.34586 7.80499 4.35665 7.80472 4.36743 7.80418C4.37823 7.80366 4.38899 7.80287 4.39974 7.8018C4.41049 7.80075 4.42121 7.79943 4.43188 7.79784C4.44257 7.79626 4.45321 7.79442 4.4638 7.79231C4.4744 7.7902 4.48494 7.78783 4.49542 7.7852C4.50589 7.78258 4.51629 7.7797 4.52663 7.77657C4.53697 7.77343 4.54722 7.77004 4.55739 7.76641C4.56756 7.76276 4.57764 7.75888 4.58763 7.75475C4.5976 7.75061 4.60747 7.74624 4.61724 7.74163C4.627 7.737 4.63664 7.73215 4.64616 7.72706C4.65569 7.72196 4.66509 7.71664 4.67437 7.71108C4.68362 7.70553 4.69274 7.69976 4.70173 7.69376C4.71071 7.68775 4.71954 7.68153 4.72821 7.6751C4.73688 7.66867 4.74539 7.66203 4.75374 7.65518C4.7621 7.64832 4.77028 7.64126 4.77827 7.63401C4.78628 7.62675 4.79411 7.61932 4.80175 7.61168C4.80938 7.60404 4.81682 7.59622 4.82407 7.58821C4.83132 7.58021 4.83838 7.57204 4.84524 7.56368C4.85209 7.55533 4.85873 7.54682 4.86517 7.53815C4.8716 7.52948 4.87782 7.52065 4.88382 7.51167C4.88982 7.50268 4.8956 7.49355 4.90114 7.48428C4.9067 7.47502 4.91203 7.46563 4.91712 7.4561C4.92221 7.44658 4.92707 7.43694 4.93169 7.42717C4.9363 7.41741 4.94067 7.40754 4.94481 7.39756C4.94894 7.38758 4.95283 7.3775 4.95647 7.36733C4.96011 7.35716 4.96349 7.34691 4.96663 7.33657C4.96977 7.32623 4.97265 7.31582 4.97526 7.30536C4.97789 7.29487 4.98026 7.28434 4.98237 7.27374C4.98448 7.26315 4.98632 7.25251 4.9879 7.24182C4.98949 7.23114 4.99081 7.22043 4.99187 7.20967C4.99293 7.19893 4.99373 7.18816 4.99425 7.17737C4.99478 7.16659 4.99505 7.15579 4.99505 7.14499C4.99505 7.13418 4.99478 7.12338 4.99425 7.1126C4.99373 7.10181 4.99293 7.09104 4.99187 7.0803C4.99081 7.06954 4.98949 7.05883 4.9879 7.04815C4.98632 7.03746 4.98448 7.02682 4.98237 7.01622C4.98026 7.00563 4.97789 6.99509 4.97526 6.98461C4.97265 6.97415 4.96977 6.96374 4.96663 6.9534C4.96349 6.94306 4.96011 6.93281 4.95647 6.92264C4.95283 6.91247 4.94894 6.90239 4.94481 6.89241C4.94067 6.88243 4.9363 6.87256 4.93169 6.8628C4.92707 6.85303 4.92221 6.84339 4.91712 6.83387C4.91203 6.82434 4.9067 6.81494 4.90114 6.80567C4.8956 6.79641 4.88982 6.78729 4.88382 6.77831C4.87782 6.76932 4.8716 6.76049 4.86517 6.75182C4.85873 6.74315 4.85209 6.73464 4.84524 6.72629C4.83838 6.71793 4.83132 6.70976 4.82407 6.70176C4.81682 6.69375 4.80938 6.68593 4.80175 6.67829C4.79411 6.67066 4.78628 6.66321 4.77827 6.65596C4.77028 6.64871 4.7621 6.64165 4.75374 6.63479C4.74539 6.62794 4.73688 6.6213 4.72821 6.61487C4.71954 6.60844 4.71071 6.60222 4.70173 6.59622C4.69274 6.59021 4.68362 6.58444 4.67437 6.57889C4.66509 6.57333 4.65569 6.56801 4.64616 6.56291C4.63664 6.55782 4.627 6.55297 4.61724 6.54834C4.60747 6.54374 4.5976 6.53936 4.58763 6.53522C4.57764 6.53109 4.56756 6.5272 4.55739 6.52356C4.54722 6.51993 4.53697 6.51654 4.52663 6.5134C4.51629 6.51026 4.50589 6.50739 4.49542 6.50477C4.48494 6.50214 4.4744 6.49977 4.4638 6.49766C4.45321 6.49555 4.44257 6.49371 4.43188 6.49213C4.42121 6.49055 4.41049 6.48922 4.39974 6.48817C4.38899 6.4871 4.37823 6.48631 4.36743 6.48579C4.35665 6.48525 4.34586 6.48499 4.33505 6.48499C4.32424 6.48499 4.31345 6.48525 4.30267 6.48579C4.29187 6.48631 4.2811 6.4871 4.27036 6.48817C4.25961 6.48922 4.24889 6.49055 4.23821 6.49213C4.22752 6.49371 4.21688 6.49555 4.2063 6.49766C4.1957 6.49977 4.18516 6.50214 4.17468 6.50477C4.16421 6.50739 4.1538 6.51026 4.14347 6.5134C4.13313 6.51654 4.12287 6.51993 4.11271 6.52356C4.10254 6.5272 4.09246 6.53109 4.08247 6.53522C4.0725 6.53936 4.06263 6.54374 4.05286 6.54834C4.0431 6.55297 4.03345 6.55782 4.02394 6.56291C4.0144 6.56801 4.005 6.57333 3.99573 6.57889C3.98647 6.58444 3.97735 6.59021 3.96837 6.59622C3.95938 6.60222 3.95056 6.60844 3.94188 6.61487C3.93321 6.6213 3.9247 6.62794 3.91636 6.63479C3.908 6.64165 3.89982 6.64871 3.89183 6.65596C3.88382 6.66321 3.87599 6.67066 3.86835 6.67829C3.86072 6.68593 3.85328 6.69375 3.84603 6.70176C3.83877 6.70976 3.83172 6.71793 3.82485 6.72629C3.818 6.73464 3.81136 6.74315 3.80493 6.75182C3.7985 6.76049 3.79228 6.76932 3.78628 6.77831C3.78028 6.78729 3.7745 6.79641 3.76895 6.80567C3.7634 6.81494 3.75807 6.82434 3.75298 6.83387C3.74789 6.84339 3.74303 6.85303 3.73841 6.8628C3.7338 6.87256 3.72942 6.88243 3.72528 6.89241C3.72116 6.90239 3.71727 6.91247 3.71362 6.92264C3.70999 6.93281 3.7066 6.94306 3.70347 6.9534C3.70033 6.96374 3.69745 6.97415 3.69483 6.98461C3.6922 6.99509 3.68983 7.00563 3.68772 7.01622C3.68562 7.02682 3.68377 7.03746 3.6822 7.04815C3.68061 7.05883 3.67929 7.06954 3.67823 7.0803C3.67716 7.09104 3.67637 7.10181 3.67585 7.1126C3.67532 7.12338 3.67505 7.13418 3.67505 7.14499Z"   fill="#E8A107" ></path></svg>