<svg xmlns="http://www.w3.org/2000/svg" xmlns:xlink="http://www.w3.org/1999/xlink" width="32" height="34.459999084472656" viewBox="0 0 32 34.459999084472656" fill="none"><path d="M24.8918 0.301521L24.6696 0.668566L21.5972 5.7296L10.3734 5.7296L7.09343 0.301798L24.8918 0.301521Z" fill-rule="evenodd"  fill="#E37E00" ></path><path d="M26.1544 0L32 5.66938L25.1469 14.7665C23.4177 13.2338 21.0547 12.1401 18.374 11.7288L25.9075 0.313907L25.8484 0.388728L26.1257 0L26.1544 0Z" fill-rule="evenodd"  fill="#FF6600" ></path><path d="M6.85068 14.7686L0 5.66937L5.8191 0.000228882L5.83763 0.000228882L6.33875 0.662198L6.23556 0.530727L13.6428 11.7263C10.9539 12.1357 8.58365 13.2316 6.85068 14.7686Z" fill-rule="evenodd"  fill="#D0401B" ></path><ellipse cx="15.999991536140442" cy="22.27060031890869" rx="12.13389503955841" ry="12.189377784729004"   fill="#F5C800" ></ellipse><path d="M16.0086 13.0659C21.0473 13.0659 25.1325 17.1688 25.1325 22.2316C25.1325 27.2948 21.0473 31.3988 16.0086 31.3988C10.969 31.3988 6.88383 27.2948 6.88383 22.2316C6.88383 17.1691 10.969 13.0659 16.0086 13.0659Z" fill-rule="evenodd"  fill="#FFDD61" ></path><path d="M16.2775 17.047L17.7096 20.4159L21.3423 20.7435C21.3494 20.7441 21.3564 20.745 21.3634 20.7461C21.3704 20.7472 21.3774 20.7486 21.3843 20.7502C21.3912 20.7518 21.398 20.7537 21.4048 20.7559C21.4116 20.758 21.4183 20.7603 21.4248 20.763C21.4314 20.7656 21.4379 20.7685 21.4444 20.7716C21.4508 20.7747 21.457 20.778 21.4631 20.7816C21.4693 20.7851 21.4753 20.7889 21.4811 20.7929C21.487 20.7969 21.4928 20.8011 21.4983 20.8055C21.5039 20.81 21.5092 20.8146 21.5144 20.8194C21.5197 20.8242 21.5247 20.8292 21.5296 20.8345C21.5345 20.8396 21.5392 20.845 21.5437 20.8505C21.5481 20.8561 21.5523 20.8618 21.5564 20.8676C21.5605 20.8735 21.5643 20.8794 21.5679 20.8855C21.5716 20.8917 21.5749 20.8979 21.5781 20.9043C21.5813 20.9107 21.5842 20.9172 21.5869 20.9237C21.5896 20.9304 21.5921 20.9371 21.5943 20.9438C21.5964 20.9506 21.5984 20.9574 21.6002 20.9644C21.6019 20.9713 21.6033 20.9783 21.6046 20.9853C21.6058 20.9923 21.6067 20.9993 21.6074 21.0064C21.6081 21.0135 21.6085 21.0206 21.6086 21.0277C21.6088 21.0349 21.6088 21.042 21.6085 21.0491C21.6081 21.0562 21.6075 21.0633 21.6065 21.0704C21.6057 21.0775 21.6046 21.0845 21.6032 21.0915C21.6019 21.0985 21.6002 21.1055 21.5983 21.1123C21.5964 21.1192 21.5943 21.126 21.592 21.1327C21.5895 21.1394 21.5869 21.146 21.584 21.1525C21.5812 21.1591 21.5781 21.1655 21.5748 21.1718C21.5715 21.1781 21.568 21.1842 21.5642 21.1903C21.5604 21.1963 21.5564 21.2022 21.5523 21.2079C21.5481 21.2137 21.5436 21.2193 21.5389 21.2247C21.5344 21.2301 21.5296 21.2354 21.5246 21.2404C21.5197 21.2455 21.5144 21.2504 21.5092 21.2551L21.5092 21.2552L18.761 23.6659L19.5739 27.2391C19.5755 27.2462 19.5768 27.2533 19.5778 27.2605C19.579 27.2677 19.5798 27.2749 19.5804 27.2821C19.5809 27.2893 19.5812 27.2966 19.5812 27.3038C19.5812 27.3111 19.5809 27.3183 19.5804 27.3256C19.5799 27.3328 19.5791 27.34 19.5781 27.3472C19.5769 27.3543 19.5756 27.3615 19.5741 27.3685C19.5725 27.3756 19.5706 27.3826 19.5685 27.3895C19.5664 27.3965 19.5641 27.4033 19.5615 27.4101C19.5589 27.4168 19.556 27.4235 19.553 27.4301C19.5498 27.4366 19.5464 27.443 19.5429 27.4493C19.5393 27.4556 19.5355 27.4618 19.5315 27.4678C19.5275 27.4738 19.5233 27.4797 19.5188 27.4854C19.5144 27.4911 19.5097 27.4967 19.5048 27.502C19.4999 27.5073 19.4949 27.5124 19.4896 27.5174C19.4844 27.5224 19.4789 27.5273 19.4734 27.5318C19.4678 27.5364 19.462 27.5407 19.4561 27.5449C19.4501 27.549 19.4441 27.553 19.4378 27.5567C19.4316 27.5604 19.4253 27.5638 19.4188 27.567C19.4124 27.5702 19.4058 27.5732 19.3992 27.576C19.3924 27.5787 19.3857 27.5811 19.3787 27.5833C19.3719 27.5856 19.365 27.5876 19.358 27.5893C19.3509 27.591 19.3439 27.5924 19.3367 27.5936C19.3296 27.5947 19.3224 27.5956 19.3153 27.5963C19.3081 27.597 19.3009 27.5974 19.2936 27.5975C19.2865 27.5976 19.2793 27.5974 19.272 27.597C19.2649 27.5966 19.2576 27.5959 19.2504 27.5949C19.2433 27.594 19.2362 27.5927 19.2291 27.5913C19.2221 27.5898 19.215 27.588 19.2082 27.586C19.2012 27.584 19.1944 27.5817 19.1876 27.5792C19.1808 27.5767 19.1742 27.5739 19.1676 27.5709C19.161 27.5679 19.1546 27.5646 19.1482 27.5611C19.1419 27.5576 19.1357 27.5538 19.1298 27.5499L16.0082 25.675L12.8767 27.5558C12.8706 27.5594 12.8644 27.5629 12.8581 27.5661C12.8517 27.5693 12.8453 27.5723 12.8387 27.575C12.8322 27.5777 12.8256 27.5803 12.8188 27.5825C12.8121 27.5847 12.8053 27.5867 12.7984 27.5884C12.7915 27.5902 12.7846 27.5917 12.7776 27.593C12.7706 27.5942 12.7636 27.5952 12.7565 27.5959C12.7495 27.5966 12.7424 27.597 12.7353 27.5973C12.7282 27.5975 12.7211 27.5974 12.714 27.597C12.7069 27.5967 12.6999 27.5962 12.6928 27.5953C12.6858 27.5945 12.6788 27.5934 12.6718 27.592C12.6649 27.5907 12.6579 27.5891 12.6511 27.5873C12.6443 27.5854 12.6375 27.5833 12.6308 27.581C12.6241 27.5786 12.6175 27.576 12.611 27.5731C12.6045 27.5703 12.598 27.5673 12.5918 27.564C12.5855 27.5607 12.5793 27.5571 12.5733 27.5534C12.5673 27.5496 12.5614 27.5456 12.5556 27.5414C12.5499 27.5372 12.5444 27.5328 12.5389 27.5282C12.5335 27.5237 12.5282 27.5188 12.5232 27.5138C12.5181 27.5088 12.5132 27.5037 12.5086 27.4984C12.5039 27.4931 12.4994 27.4875 12.4951 27.4818C12.4907 27.4762 12.4866 27.4704 12.4828 27.4644C12.4789 27.4585 12.4753 27.4523 12.4718 27.4461C12.4684 27.4398 12.4652 27.4335 12.4622 27.427C12.4593 27.4205 12.4566 27.414 12.454 27.4073C12.4515 27.4006 12.4493 27.3939 12.4473 27.387C12.4453 27.3802 12.4436 27.3733 12.4421 27.3663C12.4406 27.3593 12.4393 27.3523 12.4384 27.3452C12.4374 27.3382 12.4366 27.3312 12.4361 27.324C12.4357 27.3169 12.4355 27.3098 12.4355 27.3026C12.4356 27.2955 12.4359 27.2884 12.4364 27.2813C12.437 27.2742 12.4378 27.2671 12.4389 27.2601C12.44 27.253 12.4413 27.246 12.4429 27.2391L12.4426 27.239L13.2556 23.6658L10.5073 21.2552C10.5018 21.2504 10.4966 21.2455 10.4916 21.2404C10.4865 21.2352 10.4817 21.2299 10.477 21.2244C10.4723 21.2188 10.4679 21.2131 10.4636 21.2073C10.4594 21.2015 10.4554 21.1955 10.4516 21.1894C10.4478 21.1832 10.4442 21.1769 10.4409 21.1705C10.4376 21.1641 10.4345 21.1576 10.4316 21.151C10.4288 21.1443 10.4262 21.1376 10.4238 21.1308C10.4214 21.124 10.4193 21.117 10.4175 21.11C10.4156 21.103 10.414 21.096 10.4127 21.0889C10.4114 21.0818 10.4103 21.0747 10.4095 21.0675C10.4087 21.0603 10.4081 21.0531 10.4079 21.0459C10.4076 21.0386 10.4076 21.0314 10.4079 21.0242C10.4081 21.017 10.4087 21.0098 10.4095 21.0026C10.4103 20.9954 10.4113 20.9883 10.4126 20.9811C10.414 20.974 10.4155 20.967 10.4174 20.96C10.4192 20.953 10.4213 20.9461 10.4237 20.9393C10.426 20.9324 10.4286 20.9257 10.4315 20.9191C10.4343 20.9124 10.4374 20.9059 10.4407 20.8994C10.444 20.893 10.4476 20.8868 10.4514 20.8806C10.4552 20.8745 10.4592 20.8685 10.4635 20.8626C10.4677 20.8568 10.4721 20.8511 10.4768 20.8456C10.4814 20.8401 10.4863 20.8347 10.4913 20.8296C10.4964 20.8244 10.5016 20.8195 10.507 20.8147C10.5124 20.8099 10.518 20.8054 10.5237 20.801C10.5295 20.7966 10.5354 20.7925 10.5414 20.7886C10.5475 20.7847 10.5537 20.7811 10.56 20.7776C10.5663 20.7741 10.5728 20.7709 10.5793 20.7679C10.5859 20.765 10.5925 20.7622 10.5993 20.7598C10.6061 20.7573 10.6129 20.7551 10.6198 20.7531C10.6267 20.7512 10.6337 20.7495 10.6408 20.748C10.6478 20.7465 10.6549 20.7453 10.662 20.7444C10.6692 20.7435 10.6764 20.7429 10.6836 20.7425L14.3066 20.4159L15.7397 17.0453C15.7425 17.0387 15.7456 17.0322 15.7488 17.0258C15.752 17.0195 15.7555 17.0132 15.7592 17.0071C15.763 17.001 15.7669 16.9951 15.771 16.9892C15.7752 16.9834 15.7796 16.9777 15.7841 16.9722C15.7887 16.9667 15.7935 16.9614 15.7984 16.9562C15.8034 16.9511 15.8085 16.9461 15.8138 16.9414C15.8191 16.9366 15.8246 16.932 15.8303 16.9276C15.8359 16.9233 15.8417 16.9191 15.8477 16.9151C15.8536 16.9112 15.8597 16.9075 15.8659 16.904C15.8721 16.9005 15.8785 16.8973 15.8849 16.8942C15.8914 16.8912 15.898 16.8884 15.9046 16.8858C15.9113 16.8833 15.9181 16.8811 15.9249 16.879C15.9317 16.877 15.9386 16.8752 15.9456 16.8736C15.9525 16.8721 15.9595 16.8708 15.9666 16.8698C15.9737 16.8687 15.9807 16.868 15.9878 16.8675C15.9949 16.867 16.002 16.8668 16.0092 16.8668C16.0163 16.8668 16.0234 16.8671 16.0305 16.8676C16.0376 16.8682 16.0447 16.869 16.0518 16.8701C16.0589 16.8712 16.0659 16.8725 16.0728 16.874C16.0797 16.8756 16.0866 16.8774 16.0935 16.8795C16.1003 16.8816 16.107 16.884 16.1137 16.8865C16.1203 16.8892 16.1269 16.892 16.1333 16.8951C16.1397 16.8982 16.146 16.9015 16.1523 16.905C16.1584 16.9085 16.1645 16.9123 16.1704 16.9162C16.1763 16.9202 16.1821 16.9244 16.1877 16.9288C16.1934 16.9332 16.1988 16.9378 16.2041 16.9426C16.2094 16.9474 16.2145 16.9524 16.2194 16.9576C16.2243 16.9628 16.229 16.9681 16.2336 16.9737C16.2381 16.9792 16.2424 16.9849 16.2465 16.9907C16.2506 16.9966 16.2545 17.0026 16.2582 17.0087C16.2619 17.0149 16.2653 17.0211 16.2686 17.0275C16.2718 17.0339 16.2748 17.0404 16.2775 17.047Z"   fill="#E37E00" ></path></svg>