<svg xmlns="http://www.w3.org/2000/svg" xmlns:xlink="http://www.w3.org/1999/xlink" width="20" height="20" viewBox="0 0 20 20" fill="none"><g  clip-path="url(#clip-path-40_190)"><path d="M9.97883 -0.000213623C15.1335 -0.000213623 19.3753 1.73511 19.3753 4.26435L19.3753 12.0808L17.9499 12.0808L17.9499 6.59475C16.2837 7.79914 13.3233 8.52891 9.97883 8.52891C6.63431 8.52891 3.67463 7.79843 2.00772 6.59475L2.00772 7.81625C2.00772 8.6016 3.13016 9.40406 4.90468 9.95423L5.25602 10.0576C5.73493 10.1908 6.25518 10.307 6.80962 10.3996L7.23009 10.4645C8.01402 10.5764 8.8571 10.6434 9.73795 10.6541L9.97883 10.6555L9.97883 12.0808C6.63431 12.0808 3.67463 11.3503 2.00772 10.1466L2.00772 11.3681C2.00772 12.1535 3.13016 12.956 4.90468 13.5061L5.25602 13.6095C5.49548 13.6765 5.74562 13.7377 6.00432 13.7955L6.40056 13.8774L6.60295 13.9152L7.01843 13.985C7.86151 14.1162 8.77657 14.1946 9.73795 14.206L9.97883 14.2074L9.97883 15.6327C6.63431 15.6327 3.67463 14.9022 2.00772 13.6985L2.00772 15.7353C2.00772 16.5207 3.13016 17.3231 4.90468 17.8733L5.25602 17.9767C5.49548 18.0436 5.74562 18.1049 6.00432 18.1627L6.40056 18.2446L6.60295 18.2824L7.01843 18.3522C7.86151 18.4826 8.77657 18.5617 9.73795 18.5731L9.97883 18.5746L9.97883 19.9999C4.91038 19.9999 0.724217 18.3223 0.585961 15.8615L0.58311 15.7589L0.582397 4.32279L0.582397 4.26435C0.582397 1.77716 4.68447 0.0575119 9.72156 0.00121168L9.97883 -0.000213623ZM9.97883 1.42511L9.73795 1.42653C9.31848 1.43102 8.89961 1.44908 8.4813 1.48072C8.06302 1.51234 7.64618 1.55747 7.23081 1.6161L6.80891 1.68095C6.18605 1.78571 5.60523 1.91898 5.07786 2.07363L4.73507 2.18053C3.05889 2.72856 2.00772 3.50394 2.00772 4.26435C2.00772 5.0497 3.13016 5.85216 4.90468 6.40233L5.25602 6.50566C5.73493 6.63893 6.25518 6.75438 6.80962 6.84774L7.23009 6.91259C8.08529 7.03446 9.01032 7.10359 9.97883 7.10359C10.9473 7.10359 11.8724 7.03446 12.7268 6.91259L13.1487 6.84703C13.7025 6.75438 14.2227 6.63893 14.7023 6.50495L15.053 6.40233C16.8275 5.85216 17.9499 5.0497 17.9499 4.26435C17.9499 3.50394 16.8988 2.72856 15.2226 2.18053L14.8798 2.07363C14.6369 2.00267 14.3922 1.93853 14.1458 1.88121L13.7566 1.79569C13.5547 1.75387 13.3521 1.71586 13.1487 1.68167L12.7268 1.6161C12.2717 1.55196 11.8148 1.50395 11.3562 1.47208C10.8976 1.4402 10.4385 1.42454 9.97883 1.42511ZM18.431 13.4149L19.6069 14.2188L16.5374 18.7086C16.5306 18.7186 16.5235 18.7284 16.5162 18.738C16.5088 18.7477 16.5012 18.7571 16.4934 18.7664C16.4856 18.7757 16.4776 18.7847 16.4692 18.7936C16.461 18.8024 16.4525 18.8111 16.4437 18.8195C16.435 18.8279 16.4261 18.8361 16.4169 18.8441C16.4078 18.852 16.3984 18.8597 16.3889 18.8672C16.3794 18.8747 16.3697 18.882 16.3597 18.8889C16.3498 18.8959 16.3397 18.9026 16.3295 18.9091C16.3192 18.9156 16.3088 18.9218 16.2983 18.9278C16.2877 18.9337 16.277 18.9394 16.2661 18.9448C16.2553 18.9502 16.2443 18.9553 16.2332 18.9601C16.222 18.9649 16.2108 18.9695 16.1994 18.9738C16.1881 18.978 16.1767 18.982 16.1651 18.9857C16.1535 18.9893 16.1419 18.9927 16.1302 18.9958C16.1184 18.9989 16.1067 19.0017 16.0948 19.0042C16.0829 19.0066 16.071 19.0088 16.059 19.0107C16.047 19.0125 16.035 19.0141 16.0229 19.0154C16.0109 19.0166 15.9988 19.0176 15.9867 19.0182C15.9746 19.0188 15.9625 19.0192 15.9503 19.0192C15.9382 19.0192 15.9261 19.019 15.914 19.0184C15.9019 19.0178 15.8898 19.0169 15.8777 19.0156C15.8657 19.0144 15.8536 19.0129 15.8417 19.0111C15.8297 19.0093 15.8177 19.0071 15.8058 19.0047C15.794 19.0023 15.7822 18.9995 15.7704 18.9965C15.7587 18.9934 15.747 18.9901 15.7355 18.9865C15.7239 18.9829 15.7124 18.9789 15.7011 18.9747C15.6897 18.9705 15.6785 18.966 15.6673 18.9612C15.6562 18.9564 15.6452 18.9513 15.6343 18.946C15.6234 18.9406 15.6127 18.935 15.6021 18.9291C15.5915 18.9232 15.581 18.917 15.5708 18.9106C15.5605 18.9041 15.5504 18.8975 15.5405 18.8905C15.5305 18.8836 15.5208 18.8764 15.5112 18.8689L15.4456 18.8105L13.8657 17.2326L12.0263 19.712L10.8818 18.8625L13.2129 15.7211C13.2199 15.7115 13.2272 15.7022 13.2348 15.693C13.2423 15.6839 13.25 15.6749 13.258 15.6661C13.266 15.6573 13.2742 15.6488 13.2826 15.6404C13.291 15.632 13.2996 15.6239 13.3084 15.6159C13.3172 15.608 13.3262 15.6003 13.3354 15.5928C13.3446 15.5853 13.354 15.578 13.3636 15.571C13.3731 15.564 13.3828 15.5572 13.3927 15.5507C13.4026 15.5441 13.4127 15.5379 13.4229 15.5318C13.4331 15.5258 13.4435 15.52 13.454 15.5145C13.4645 15.509 13.4751 15.5037 13.4859 15.4987C13.4966 15.4937 13.5075 15.489 13.5185 15.4846C13.5295 15.4802 13.5406 15.476 13.5518 15.4721C13.563 15.4682 13.5743 15.4646 13.5857 15.4613C13.5971 15.458 13.6085 15.4549 13.6201 15.4522C13.6316 15.4494 13.6432 15.4469 13.6549 15.4448C13.6665 15.4426 13.6782 15.4407 13.69 15.4391C13.7017 15.4375 13.7135 15.4362 13.7253 15.4352C13.7372 15.4342 13.749 15.4335 13.7609 15.4331C13.7727 15.4327 13.7846 15.4326 13.7964 15.4328C13.8083 15.433 13.8202 15.4334 13.832 15.4342C13.8438 15.435 13.8556 15.4361 13.8674 15.4374C13.8792 15.4388 13.8909 15.4404 13.9026 15.4424C13.9143 15.4443 13.926 15.4466 13.9376 15.4491C13.9491 15.4516 13.9607 15.4545 13.9721 15.4576C13.9836 15.4607 13.9949 15.4641 14.0062 15.4677C14.0175 15.4714 14.0287 15.4753 14.0397 15.4796C14.0508 15.4838 14.0618 15.4883 14.0726 15.4931C14.0835 15.4979 14.0942 15.5029 14.1048 15.5082C14.1154 15.5136 14.1259 15.5191 14.1362 15.525C14.1465 15.5308 14.1567 15.5369 14.1667 15.5432C14.1768 15.5496 14.1866 15.5562 14.1963 15.563C14.206 15.5699 14.2155 15.5769 14.2249 15.5842L14.289 15.6413L15.8454 17.1956L18.431 13.4149ZM19.0189 13.1042C19.0297 13.1042 19.0405 13.1044 19.0513 13.1049C19.0621 13.1054 19.0728 13.1061 19.0836 13.1071C19.0943 13.1081 19.105 13.1093 19.1157 13.1108C19.1264 13.1123 19.1371 13.114 19.1477 13.1159C19.1583 13.1179 19.1689 13.1201 19.1794 13.1225C19.1899 13.1249 19.2003 13.1276 19.2107 13.1305C19.2211 13.1334 19.2315 13.1366 19.2417 13.1399C19.2519 13.1433 19.2621 13.1469 19.2722 13.1508C19.2823 13.1546 19.2923 13.1586 19.3022 13.1629C19.3121 13.1672 19.3219 13.1717 19.3316 13.1765C19.3413 13.1812 19.3509 13.1862 19.3603 13.1913C19.3698 13.1965 19.3792 13.2019 19.3884 13.2075C19.3976 13.2131 19.4067 13.2189 19.4157 13.2249C19.4246 13.2309 19.4334 13.2371 19.4421 13.2435C19.4508 13.2499 19.4593 13.2565 19.4677 13.2633C19.4761 13.2701 19.4843 13.2771 19.4924 13.2843C19.5005 13.2915 19.5084 13.2988 19.5161 13.3063C19.5238 13.3139 19.5314 13.3216 19.5388 13.3295C19.5461 13.3373 19.5533 13.3454 19.5603 13.3536C19.5674 13.3617 19.5742 13.3701 19.5808 13.3786C19.5875 13.3871 19.5939 13.3958 19.6001 13.4046C19.6064 13.4134 19.6124 13.4223 19.6183 13.4314C19.6241 13.4405 19.6297 13.4497 19.6352 13.459C19.6406 13.4684 19.6458 13.4778 19.6507 13.4874C19.6558 13.4969 19.6605 13.5066 19.6651 13.5164C19.6696 13.5262 19.6739 13.5361 19.678 13.5461C19.6821 13.556 19.686 13.5661 19.6896 13.5763C19.6933 13.5864 19.6967 13.5967 19.6999 13.607C19.7031 13.6173 19.706 13.6277 19.7087 13.6381C19.7114 13.6486 19.7139 13.6591 19.7161 13.6696C19.7184 13.6802 19.7203 13.6908 19.7221 13.7014C19.7238 13.7121 19.7253 13.7228 19.7266 13.7335L19.7316 13.8168L19.7316 17.445L18.3063 17.445L18.3063 14.5295L15.2368 14.5295L15.2368 13.1042L19.0189 13.1042Z"   fill="#E8A107" ></path></g><defs><clipPath id="clip-path-40_190"><path d="M0 20L20 20L20 0L0 0L0 20Z" fill="white"/></clipPath></defs></svg>