<svg xmlns="http://www.w3.org/2000/svg" xmlns:xlink="http://www.w3.org/1999/xlink" width="20" height="20" viewBox="0 0 20 20" fill="none"><g  clip-path="url(#clip-path-40_180)"><path d="M16.2797 20L3.72026 20C2.47539 20 1.46265 18.9872 1.46265 17.7424L1.46265 9.21368C1.46265 8.72711 1.85706 8.3327 2.34363 8.3327C2.83019 8.3327 3.2246 8.72711 3.2246 9.21368L3.2246 17.7424C3.2246 18.0157 3.44697 18.2381 3.72026 18.2381L16.2797 18.2381C16.553 18.2381 16.7754 18.0157 16.7754 17.7424L16.7754 2.25966C16.7754 1.98634 16.553 1.764 16.2797 1.764L8.07613 1.764C7.58957 1.764 7.19515 1.36959 7.19515 0.883023C7.19515 0.396485 7.58957 0.00204468 8.07613 0.00204468L16.2797 0.00204468C17.5246 0.00204468 18.5373 1.01481 18.5373 2.25966L18.5373 17.7424C18.5373 18.9872 17.5245 20 16.2797 20Z"   fill="#E8A107" ></path><path d="M2.34363 10.5541C1.85706 10.5541 1.46265 10.1597 1.46265 9.67315L1.46265 6.08709C1.46265 5.60053 1.85706 5.20612 2.34363 5.20612C2.83019 5.20612 3.2246 5.60053 3.2246 6.08709L3.2246 9.67313C3.2246 10.1597 2.83019 10.5541 2.34363 10.5541Z"   fill="#E8A107" ></path><path d="M6.43521 6.97007L2.60779 6.97007C2.12122 6.97007 1.72681 6.57563 1.72681 6.08909C1.72681 5.60253 2.12122 5.20811 2.60779 5.20811L6.43523 5.20811C6.70855 5.20811 6.93094 4.98575 6.93094 4.71246L6.93094 0.881009C6.93094 0.394471 7.32535 3.05176e-05 7.81192 3.05176e-05C8.29848 3.05176e-05 8.6929 0.394471 8.6929 0.881009L8.6929 4.71246C8.69287 5.9573 7.68008 6.97007 6.43521 6.97007Z"   fill="#E8A107" ></path><path d="M2.34378 6.96805C2.11103 6.96805 1.87874 6.8764 1.70557 6.69451C1.37008 6.34212 1.38377 5.78449 1.73617 5.449L7.20448 0.242954C7.55688 -0.0925325 8.11451 -0.0788416 8.45002 0.273551C8.78551 0.625942 8.77182 1.18358 8.41943 1.51906L2.95111 6.72513C2.78058 6.88747 2.562 6.96805 2.34378 6.96805Z"   fill="#E8A107" ></path><path d="M5.62673 15.5676C5.60693 15.5676 5.58716 15.567 5.56742 15.5656C5.54767 15.5643 5.52799 15.5623 5.50839 15.5596C5.48877 15.5569 5.46927 15.5536 5.44989 15.5496C5.43051 15.5457 5.41127 15.541 5.3922 15.5357C5.37313 15.5304 5.35427 15.5245 5.3356 15.5179C5.31692 15.5113 5.29849 15.5042 5.28031 15.4963C5.26214 15.4885 5.24424 15.4801 5.22662 15.4711C5.20902 15.4621 5.19173 15.4524 5.17476 15.4422C4.75739 15.1921 4.62179 14.6511 4.87187 14.2337L7.99277 9.02523C8.00058 9.0122 8.00872 8.99938 8.01718 8.98678C8.02565 8.97416 8.03444 8.96178 8.04356 8.94963C8.05268 8.93747 8.06208 8.92556 8.07182 8.9139C8.08156 8.90223 8.09158 8.89082 8.10189 8.87966C8.1122 8.86851 8.1228 8.85764 8.13368 8.84704C8.14456 8.83645 8.1557 8.82614 8.16711 8.81611C8.17851 8.80609 8.19018 8.79637 8.20211 8.78694C8.21404 8.77753 8.22618 8.76842 8.23856 8.75963C8.25095 8.75084 8.26354 8.74237 8.27637 8.73422C8.28921 8.72608 8.30223 8.71828 8.31547 8.71082C8.32869 8.70334 8.34212 8.69622 8.35571 8.68946C8.36931 8.68268 8.38307 8.67626 8.397 8.6702C8.41093 8.66415 8.425 8.65846 8.43921 8.65313C8.45343 8.64779 8.46778 8.64283 8.48229 8.63824C8.49676 8.63364 8.51136 8.62943 8.52605 8.6256C8.54074 8.62176 8.55553 8.61831 8.57041 8.61524C8.58529 8.61217 8.60022 8.60947 8.61524 8.60717C8.63027 8.60489 8.64531 8.60298 8.66043 8.60146C8.67555 8.59995 8.6907 8.59882 8.70586 8.59808C8.72103 8.59735 8.73622 8.597 8.75141 8.59705C8.7666 8.5971 8.78177 8.59755 8.79694 8.59839C8.81211 8.59923 8.82725 8.60046 8.84234 8.60208C8.85746 8.6037 8.87251 8.6057 8.88751 8.6081C8.90251 8.6105 8.91744 8.61327 8.9323 8.61643C8.94716 8.61961 8.96192 8.62317 8.97659 8.6271C8.99125 8.63104 9.00583 8.63535 9.02028 8.64003C9.03473 8.64471 9.04904 8.64977 9.06323 8.6552C9.0774 8.66063 9.09145 8.66641 9.10533 8.67255C9.11921 8.67871 9.13295 8.68522 9.1465 8.69208C9.16004 8.69895 9.17343 8.70617 9.18659 8.71372C9.19976 8.72128 9.21274 8.72917 9.22552 8.73739C9.23829 8.74561 9.25083 8.75416 9.26317 8.76303L12.0734 10.7859L13.7166 8.03618C13.9662 7.61852 14.5071 7.48228 14.9248 7.73188C15.3424 7.98146 15.4787 8.52238 15.2291 8.94004L13.0936 12.5134C13.0858 12.5265 13.0777 12.5393 13.0692 12.552C13.0608 12.5646 13.052 12.577 13.0429 12.5891C13.0338 12.6013 13.0244 12.6133 13.0146 12.6249C13.0049 12.6366 12.9949 12.648 12.9846 12.6592C12.9743 12.6704 12.9637 12.6813 12.9528 12.6919C12.9419 12.7025 12.9308 12.7129 12.9194 12.7229C12.908 12.7329 12.8963 12.7427 12.8844 12.7521C12.8725 12.7616 12.8603 12.7707 12.8479 12.7795C12.8355 12.7883 12.8229 12.7968 12.8101 12.8049C12.7973 12.8131 12.7842 12.8209 12.771 12.8284C12.7578 12.8359 12.7444 12.843 12.7308 12.8498C12.7172 12.8566 12.7034 12.863 12.6895 12.8691C12.6755 12.8752 12.6614 12.8809 12.6472 12.8862C12.633 12.8916 12.6186 12.8966 12.6041 12.9012C12.5896 12.9058 12.5751 12.91 12.5603 12.9138C12.5456 12.9177 12.5308 12.9211 12.516 12.9242C12.5011 12.9273 12.4861 12.93 12.4711 12.9323C12.4561 12.9346 12.441 12.9365 12.4259 12.938C12.4108 12.9396 12.3956 12.9407 12.3804 12.9414C12.3652 12.9422 12.35 12.9425 12.3348 12.9425C12.3196 12.9425 12.3044 12.942 12.2893 12.9412C12.2741 12.9404 12.2589 12.9391 12.2438 12.9375C12.2287 12.9359 12.2137 12.9339 12.1986 12.9315C12.1836 12.9291 12.1687 12.9263 12.1538 12.9232C12.1389 12.92 12.1242 12.9165 12.1095 12.9125C12.0948 12.9086 12.0802 12.9043 12.0658 12.8996C12.0513 12.8949 12.037 12.8898 12.0228 12.8844C12.0086 12.879 11.9945 12.8732 11.9806 12.867C11.9667 12.8609 11.953 12.8544 11.9394 12.8475C11.9259 12.8407 11.9125 12.8334 11.8993 12.8259C11.8861 12.8183 11.8731 12.8104 11.8604 12.8022C11.8476 12.794 11.835 12.7854 11.8227 12.7765L9.01159 10.7529L6.38327 15.1393C6.21815 15.4149 5.92616 15.5676 5.62673 15.5676Z"   fill="#E8A107" ></path></g><defs><clipPath id="clip-path-40_180"><path d="M0 20L20 20L20 0L0 0L0 20Z" fill="white"/></clipPath></defs></svg>