<svg xmlns="http://www.w3.org/2000/svg" xmlns:xlink="http://www.w3.org/1999/xlink" width="20" height="20" viewBox="0 0 20 20" fill="none"><g  clip-path="url(#clip-path-40_186)"><path d="M9.7524 18.0524C5.30485 18.0524 1.70007 14.4471 1.70007 10C1.70007 5.55291 5.30485 1.94769 9.7524 1.94769C14.1991 1.94769 17.8047 5.55291 17.8047 10C17.8047 14.4471 14.1991 18.0524 9.7524 18.0524ZM9.7524 16.2629C13.2113 16.2629 16.0153 13.459 16.0153 10C16.0153 6.54111 13.2113 3.73711 9.7524 3.73711C6.29348 3.73711 3.48948 6.54111 3.48948 10C3.48948 13.459 6.29348 16.2629 9.7524 16.2629Z"   fill="#FFFFFF" ></path><path d="M6.17358 8.2106C6.17358 8.22523 6.17395 8.23986 6.17467 8.25449C6.17538 8.26912 6.17646 8.28371 6.1779 8.29827C6.17934 8.31285 6.18113 8.32738 6.18327 8.34186C6.18541 8.35635 6.18792 8.37077 6.19079 8.38513C6.19364 8.39949 6.19684 8.41377 6.20039 8.42797C6.20396 8.44219 6.20786 8.45629 6.21211 8.47029C6.21635 8.48431 6.22095 8.49821 6.22589 8.51199C6.23082 8.52578 6.23609 8.53944 6.24169 8.55297C6.24729 8.5665 6.25322 8.57988 6.25949 8.59312C6.26575 8.60636 6.27233 8.61943 6.27923 8.63235C6.28613 8.64526 6.29334 8.658 6.30087 8.67055C6.3084 8.68312 6.31623 8.69548 6.32436 8.70765C6.33251 8.71983 6.34094 8.7318 6.34966 8.74356C6.35839 8.75532 6.36739 8.76686 6.37667 8.77818C6.38596 8.7895 6.39552 8.80058 6.40535 8.81142C6.41518 8.82227 6.42528 8.83288 6.43563 8.84323C6.44599 8.85359 6.45659 8.86369 6.46745 8.87352C6.4783 8.88335 6.48938 8.89291 6.5007 8.9022C6.51201 8.91149 6.52355 8.9205 6.53531 8.92922C6.54707 8.93795 6.55904 8.94637 6.57122 8.9545C6.5834 8.96264 6.59576 8.97047 6.60832 8.978C6.62088 8.98553 6.63362 8.99274 6.64652 8.99964C6.65944 9.00654 6.67251 9.01312 6.68575 9.01939C6.69898 9.02565 6.71237 9.03158 6.7259 9.03718C6.73943 9.04279 6.75309 9.04807 6.76687 9.05299C6.78066 9.05792 6.79456 9.06251 6.80857 9.06676C6.82259 9.07101 6.83669 9.07491 6.85089 9.07848C6.86509 9.08204 6.87938 9.08525 6.89374 9.0881C6.9081 9.09096 6.92252 9.09345 6.93701 9.0956C6.95149 9.09775 6.96602 9.09955 6.98059 9.10098C6.99517 9.10242 7.00976 9.1035 7.02438 9.10422C7.03901 9.10493 7.05365 9.10528 7.06829 9.10528C7.08294 9.10528 7.09757 9.10493 7.11218 9.10422C7.12681 9.1035 7.14141 9.10242 7.15599 9.10098C7.17055 9.09955 7.18508 9.09775 7.19958 9.0956C7.21406 9.09345 7.22848 9.09096 7.24284 9.0881C7.25721 9.08525 7.27149 9.08204 7.28569 9.07848C7.29989 9.07491 7.314 9.07101 7.32801 9.06676C7.34202 9.06251 7.35592 9.05792 7.36971 9.05299C7.3835 9.04807 7.39715 9.04279 7.41069 9.03718C7.4242 9.03158 7.43758 9.02565 7.45082 9.01939C7.46405 9.01312 7.47713 9.00654 7.49004 8.99964C7.50296 8.99274 7.5157 8.98553 7.52827 8.978C7.54082 8.97047 7.55318 8.96264 7.56536 8.9545C7.57754 8.94637 7.5895 8.93795 7.60125 8.92922C7.61302 8.9205 7.62456 8.91149 7.63588 8.9022C7.6472 8.89291 7.65829 8.88335 7.66914 8.87352C7.67999 8.86369 7.69059 8.85359 7.70093 8.84323C7.71129 8.83288 7.72138 8.82227 7.73121 8.81142C7.74105 8.80058 7.75061 8.7895 7.75991 8.77818C7.7692 8.76686 7.7782 8.75532 7.78692 8.74356C7.79564 8.7318 7.80407 8.71983 7.8122 8.70765C7.82035 8.69548 7.82818 8.68312 7.83569 8.67055C7.84322 8.658 7.85044 8.64526 7.85736 8.63235C7.86425 8.61943 7.87083 8.60636 7.87709 8.59312C7.88335 8.57988 7.88928 8.5665 7.8949 8.55297C7.9005 8.53944 7.90576 8.52578 7.91069 8.51199C7.91562 8.49821 7.92022 8.48431 7.92448 8.47029C7.92872 8.45629 7.93262 8.44219 7.93617 8.42797C7.93973 8.41377 7.94294 8.39949 7.9458 8.38513C7.94865 8.37077 7.95116 8.35635 7.95331 8.34186C7.95546 8.32738 7.95725 8.31285 7.95868 8.29827C7.96011 8.28371 7.96119 8.26912 7.96192 8.25449C7.96264 8.23986 7.963 8.22523 7.963 8.2106C7.963 8.19595 7.96264 8.18132 7.96192 8.16669C7.96119 8.15206 7.96011 8.13746 7.95868 8.1229C7.95725 8.10832 7.95546 8.09379 7.95331 8.07931C7.95116 8.06483 7.94865 8.05041 7.9458 8.03604C7.94294 8.02168 7.93973 8.0074 7.93617 7.9932C7.93262 7.97898 7.92872 7.96488 7.92448 7.95088C7.92022 7.93686 7.91562 7.92296 7.91069 7.90918C7.90576 7.89538 7.9005 7.88172 7.8949 7.8682C7.88928 7.85467 7.88335 7.84129 7.87709 7.82805C7.87083 7.81481 7.86425 7.80174 7.85736 7.78882C7.85044 7.77591 7.84322 7.76318 7.83569 7.75062C7.82818 7.73806 7.82035 7.72568 7.8122 7.7135C7.80407 7.70134 7.79564 7.68938 7.78692 7.67761C7.7782 7.66585 7.7692 7.65431 7.75991 7.64299C7.75061 7.63167 7.74105 7.62059 7.73121 7.60975C7.72138 7.5989 7.71129 7.58829 7.70093 7.57794C7.69059 7.56758 7.67999 7.55749 7.66914 7.54765C7.65829 7.53782 7.6472 7.52826 7.63588 7.51898C7.62456 7.50968 7.61302 7.50067 7.60125 7.49195C7.5895 7.48323 7.57754 7.4748 7.56536 7.46667C7.55318 7.45853 7.54082 7.4507 7.52827 7.44317C7.5157 7.43565 7.50296 7.42843 7.49004 7.42153C7.47713 7.41463 7.46405 7.40805 7.45082 7.40178C7.43758 7.39552 7.4242 7.38959 7.41069 7.38399C7.39715 7.37839 7.3835 7.37312 7.36971 7.36818C7.35592 7.36325 7.34202 7.35866 7.32801 7.35441C7.314 7.35016 7.29989 7.34626 7.28569 7.3427C7.27149 7.33913 7.25721 7.33592 7.24284 7.33307C7.22848 7.33022 7.21406 7.32772 7.19958 7.32557C7.18508 7.32342 7.17055 7.32162 7.15599 7.32019C7.14141 7.31875 7.12681 7.31768 7.11218 7.31695C7.09757 7.31624 7.08294 7.31589 7.06829 7.31589C7.05365 7.31589 7.03901 7.31624 7.02438 7.31695C7.00976 7.31768 6.99517 7.31875 6.98059 7.32019C6.96602 7.32162 6.95149 7.32342 6.93701 7.32557C6.92252 7.32772 6.9081 7.33022 6.89374 7.33307C6.87938 7.33592 6.86509 7.33913 6.85089 7.3427C6.83669 7.34626 6.82259 7.35016 6.80857 7.35441C6.79456 7.35866 6.78066 7.36325 6.76687 7.36818C6.75309 7.37312 6.73943 7.37839 6.7259 7.38399C6.71237 7.38959 6.69898 7.39552 6.68575 7.40178C6.67251 7.40805 6.65944 7.41463 6.64652 7.42153C6.63362 7.42843 6.62088 7.43565 6.60832 7.44317C6.59576 7.4507 6.5834 7.45853 6.57122 7.46667C6.55904 7.4748 6.54707 7.48323 6.53531 7.49195C6.52355 7.50067 6.51201 7.50968 6.5007 7.51898C6.48938 7.52826 6.4783 7.53782 6.46745 7.54765C6.45659 7.55749 6.44599 7.56758 6.43563 7.57794C6.42528 7.58829 6.41518 7.5989 6.40535 7.60975C6.39552 7.62059 6.38596 7.63167 6.37667 7.64299C6.36739 7.65431 6.35839 7.66585 6.34966 7.67761C6.34094 7.68938 6.33251 7.70134 6.32436 7.7135C6.31623 7.72568 6.3084 7.73806 6.30087 7.75062C6.29334 7.76318 6.28613 7.77591 6.27923 7.78882C6.27233 7.80174 6.26575 7.81481 6.25949 7.82805C6.25322 7.84129 6.24729 7.85467 6.24169 7.8682C6.23609 7.88173 6.23082 7.89539 6.22589 7.90918C6.22095 7.92296 6.21635 7.93686 6.21211 7.95088C6.20786 7.96488 6.20396 7.97898 6.20039 7.9932C6.19684 8.0074 6.19364 8.02168 6.19079 8.03604C6.18792 8.05041 6.18541 8.06483 6.18327 8.07931C6.18113 8.09379 6.17934 8.10832 6.1779 8.1229C6.17646 8.13746 6.17538 8.15206 6.17467 8.16669C6.17395 8.18132 6.17358 8.19595 6.17358 8.2106Z"   fill="#FFFFFF" ></path><path d="M1.98638 13.34C2.06468 13.4066 2.1953 13.4777 2.37693 13.544C2.81534 13.7041 3.464 13.8034 4.26789 13.8244C6.00048 13.8701 8.27929 13.5556 10.6404 12.923C13.0015 12.2905 15.1318 11.4231 16.6099 10.5172C17.2957 10.0967 17.8074 9.68688 18.1071 9.32902C18.2315 9.18139 18.3094 9.05388 18.3438 8.95726C18.3599 8.91074 18.3612 8.89687 18.3617 8.89776C18.3545 8.87316 18.2718 8.79487 18.0378 8.69511C17.6898 8.54614 17.1673 8.44011 16.5079 8.39315L16.6349 6.60822C18.5147 6.74153 19.7811 7.28283 20.0897 8.43431C20.6911 10.6787 16.6242 13.1718 11.1034 14.6516C5.58311 16.1305 0.814329 16.0048 0.212642 13.7605C-0.104084 12.5772 0.774515 11.4454 2.42615 10.3619L3.40763 11.8583C2.82027 12.2435 2.38857 12.6143 2.14072 12.9329C2.04096 13.0617 1.97967 13.1709 1.95373 13.2523C1.94299 13.2872 1.94165 13.2979 1.94121 13.2975C1.94165 13.2975 1.95061 13.31 1.98594 13.34L1.98638 13.34Z"   fill="#FFFFFF" ></path></g><defs><clipPath id="clip-path-40_186"><path d="M0 20L20 20L20 0L0 0L0 20Z" fill="white"/></clipPath></defs></svg>